<svg xmlns="http://www.w3.org/2000/svg" viewBox="0 0 321.8 161.61"><defs><style>.cls-1{fill:#f39108;}.cls-2{fill:#8d4a5c;}.cls-3{fill:#f8676e;}.cls-4{fill:#fff;}.cls-5{fill:#e5e5ea;}.cls-6{fill:#fead9a;}.cls-7{fill:#0fd6d0;}.cls-8{fill:#00aeaf;}</style></defs><title>Asset 1</title><g id="Layer_2" data-name="Layer 2"><g id="BACKGROUND1"><path class="cls-1" d="M100.56,111.57a57.94,57.94,0,0,1,.06,27l-9.66,0,0,21.51a74.7,74.7,0,0,1-29.89.06l0-21.5-58,.12L0,133.29,48.8,28.21C57.56,29.46,67.16,31.7,76,38.54L43,111.69l18,0,0-20.41a74.7,74.7,0,0,1,29.89-.06l.05,20.41Z"/><path class="cls-1" d="M320.17,111.1a57.67,57.67,0,0,1,.06,27l-9.66,0,.05,21.51a74.51,74.51,0,0,1-29.89.06l-.05-21.5-58,.12-3.11-5.46,48.8-105.08c8.76,1.25,18.36,3.5,27.17,10.33l-33,73.15,18,0,0-20.41a74.88,74.88,0,0,1,29.89-.06l0,20.41Z"/><path class="cls-2" d="M107.15,10.06S101.57.32,103.63,0s7.93,11.34,7.93,11.34Z"/><path class="cls-3" d="M103.61,1.69c1.51,1.53,2.19,1.77,5,4.84C108.09,6,103.78-2.2,103.61,1.69Z"/><path class="cls-2" d="M117.2,13.7c-1.82-4,.22-3.35,1.59-.34Z"/><path class="cls-2" d="M104.06,12.73c-.11.67-.23,1.34-.34,2-1.88-.26.79,3.21.52,0,.26-.58.46-1.13.72-1.71C104.63,13,104.38,12.79,104.06,12.73Z"/><path class="cls-3" d="M121.66,10.64c-.62-.21-3.08,1.28-4.35,2.1C81.18-4,117.19,29.75,121.66,10.64Z"/><path class="cls-2" d="M103.13,11.63l-1.15.48c2.18,2.74,11.85,4.29,15.68,4a2.81,2.81,0,0,0,.31-.29C113.89,15.51,108.5,15.35,103.13,11.63Z"/><path class="cls-2" d="M104.38,11.36c-.14-.72,1.44-.24,0-3.94-2.38-.08-4.56,2.86-1.73,5.35C103.53,12.44,102.73,12.8,104.38,11.36Z"/><path class="cls-2" d="M108.26,9.11c-.06.32,2.78,4.46,4.18,1.8Z"/><path class="cls-2" d="M117,16.18a4.59,4.59,0,0,0,2.19-.47l-1.57-1.3A2.73,2.73,0,0,1,117,16.18Z"/><path class="cls-2" d="M114.86,16.1l-2.17-2.73a10.69,10.69,0,0,1-5-1.23,2.45,2.45,0,0,1-1.61,2.27A39.81,39.81,0,0,0,114.86,16.1Z"/><path class="cls-3" d="M107.7,12.14l5,1.23C123.82,36.75,108.43,17.23,107.7,12.14Z"/><path class="cls-2" d="M113.35,21c-.82-1.07-2-2.94-3.72-5.49,1.43,1.82,3.28,8.3,6.8,8.66A15.44,15.44,0,0,1,113.35,21Z"/><path class="cls-3" d="M117.63,14.41l2.2.36S123.33,21.41,117.63,14.41Z"/><path class="cls-4" d="M102.43,6.21c2.53,1-.36,7.58-2.31,6.6C97.58,11.53,100.42,5.37,102.43,6.21Z"/><path class="cls-4" d="M108.26,9.11c.15.6,2.48-3.12,4.18,1.8A4.48,4.48,0,0,1,108.26,9.11Z"/><path class="cls-5" d="M108.8,9.13a3.09,3.09,0,0,1,1.43-.32c-.29.78,0,.46,1.82,1.83A3.91,3.91,0,0,1,108.8,9.13Z"/><path class="cls-5" d="M101.71,11.63A6,6,0,0,0,103,8.28a4.67,4.67,0,0,0-2,1.09A3.56,3.56,0,0,0,101.71,11.63Z"/><path class="cls-6" d="M117.46,12.8s3.88-2.18,4.17-2C121.63,10.8,120.85,11.74,117.46,12.8Z"/><path class="cls-7" d="M134.07,36c-3-6.9,6.1-6.12,8-6,1.28-1.62,6.2-6.15,9.3.31l2.19-1.68c1.19,3.71-1.51,9.43-8.11,8.43C144.32,58.78,118.87,40.67,134.07,36Z"/><path class="cls-8" d="M106.56,67.84a5.78,5.78,0,0,1,4.76-3.24c-2-3.81-1.44-11.71,6.2-9.7C113,48.71,122.6,39.63,129.4,44.41c1.91-11.68,17.95-1.73,7.15,5,2.57,2.76-2.16,19.28-8.79,19.53.67,2.64-2,6.32-4.7,5.84a8.18,8.18,0,0,1,2.4,12.27c5.6,17.31-21.59,11.77-12.68-2.47C107.83,81.68,103.68,73.36,106.56,67.84Z"/><path class="cls-7" d="M179.83,30c1-3.4,7.09-5.59,9.46.14a4.94,4.94,0,0,1,8.86,1.75c1.55,2.87-2.11,3.49-6.66.66C162.65,52.8,168.24,16.29,179.83,30Z"/><path class="cls-8" d="M207.78,92.5a6.34,6.34,0,0,0,1.33-10.89c1.45-1.69-.52-5.36-2.68-5.89,8-4.35,7.32-18.14-3-20.86A10.34,10.34,0,0,0,195.11,43c1.29-1.85-1.63-6.58-5.74-4.64-.13-1.59-1.77-5.94-6.9-3.5-.23-2.48-3.73-4.22-6.16-3.66.3-6.9-11-18.85-17.55-8.35.35-1-1.41-4.62-4.29-1.55.14-1.68-2-2.71-3.64-2.54,0-4-6-8.21-10.26-2.7-.28-1.84-3-2.52-4.34-1.18,0-4.7-10.41-1.41-3.21,1,.35,2.19,4.27,4.14,6.23,3.09a4.42,4.42,0,0,0,8.07,2.49c-3.47,6.57,4.68,15.32,12.25,9.78.79,3,4.85,7.28,8.68,3.18-.49,3.18,1.79,9.29,7.79,8.23.39,2.1,2.42,4.22,6.2,3.07a5.87,5.87,0,0,0,6.87,6.46c-2,2.79-2.81,8.3,3.49,9.42-.44,2.46,1.21,7.18,4.45,11.29-6.72,1.39-11.85,10.75-6.35,17.87a7.5,7.5,0,0,0,.21,13.46c-4.67-.83-9.71,5.34-5.93,10.73a7.36,7.36,0,0,0-3.55,12.74c-5.66-2-20,3.73-12.37,12.35a10.91,10.91,0,0,0-13.17,1.26c.54-1.19-.16-6.11-5.89-4.61a8.52,8.52,0,0,0-10.38-10.83c1.2-3.67.81-9.33-6-10a6,6,0,0,0-1.45-1.25c1.93-2.28,1.78-8.42-2.58-11,8.1-4.6,3.34-17.25-6.37-14.72-1.78-9.27-15.17-4.76-10.07,4-3.54.67-7.11,8.36-.62,10.34a4.13,4.13,0,0,0,3.24,5.56c-2.83,2.87-.43,9.48,5.2,17.2-1.79,5.93,2.75,15.35,11.36,15.62a5.58,5.58,0,0,0,6.41,5.19c-.71,2.49,2.33,4.93,4.88,4.52a6.93,6.93,0,0,0,11.75,1.21c2.75,2.93,10.83,3,13.08-3.08,5.39,13.83,24,7.66,22.78-5.8a7.39,7.39,0,0,0,3.88-10.32c6.91-.75,14.37-9.94,10.64-18.26C214.78,112.15,217,98.28,207.78,92.5Z"/></g></g></svg>