<svg xmlns="http://www.w3.org/2000/svg" width="639.769" height="169.236" viewBox="0 0 639.769 169.236">
  <g id="logo_light" transform="translate(-782.452 -523)">
    <path id="Path_1" data-name="Path 1" d="M190.14,432.89c36.77-19,77.7-50.57,84.49-93.34,3.46-21.71-4-49.21-26.5-57.76-17.78-6.76-34.86,3.58-46.75,16.39l-11.24,12.11-11.21-12.13c-11.83-12.78-28.84-23.07-46.57-16.41-22.55,8.5-30.11,35.95-26.73,57.69,6.71,42.82,47.74,74.42,84.51,93.45Z" transform="translate(701.559 259.346)" fill="#00aeaf" fill-rule="evenodd"/>
    <path id="Path_2" data-name="Path 2" d="M130.64,376.5a7.1,7.1,0,0,0,3.85-2.18,34.373,34.373,0,0,0,4.06-4.5q1.875-2.475,3.44-4.72t1.98-3c.55-.8,1.18-1.7,1.87-2.7s1.87-1.3,3.54-.9q2.7.6,2.4,2.55c-.21,1.3-.38,2.35-.52,3.15a44.914,44.914,0,0,0-.42,4.73q-.21,3.675-.21,7.88a44.888,44.888,0,0,0,.62,7.72c.42,2.35,1.18,3.72,2.29,4.13a24.7,24.7,0,0,0,6.14-6.15,65.4,65.4,0,0,0,5-8.1q2.19-4.2,3.85-8.17c1.11-2.65,2.08-4.82,2.92-6.53a31.476,31.476,0,0,1-2.81-10.35,25.236,25.236,0,0,1,.52-9.15,9.708,9.708,0,0,1,3.54-5.4,8.8,8.8,0,0,1,5.21-1.8q3.96,0,5.83,1.57a7.09,7.09,0,0,1,2.4,4.13,15.632,15.632,0,0,1,0,5.63,38.494,38.494,0,0,1-1.56,6.08q-1.05,3-2.19,5.55t-1.77,3.9c.42.9.9,1.9,1.46,3a26.126,26.126,0,0,0,1.87,3.15,12.188,12.188,0,0,0,2.19,2.47,4.176,4.176,0,0,0,2.81.97,10.639,10.639,0,0,0,5.83-1.72,26.716,26.716,0,0,0,5-4.13,37.423,37.423,0,0,0,4.06-5.03q1.77-2.625,2.81-4.27a2.516,2.516,0,0,1,1.67-1.28,4.824,4.824,0,0,1,2.5-.08,3.02,3.02,0,0,1,1.87,1.2,1.443,1.443,0,0,1,0,1.8,38.058,38.058,0,0,1-3.75,5.33,33.016,33.016,0,0,1-5.31,5.1,28.479,28.479,0,0,1-6.67,3.82,19.112,19.112,0,0,1-8.02,1.35,12.675,12.675,0,0,1-6.25-1.5,19.287,19.287,0,0,1-5-4.05,59.325,59.325,0,0,1-5.1,8.85,62.314,62.314,0,0,1-6.35,7.8,35.6,35.6,0,0,1-6.56,5.48,11.126,11.126,0,0,1-5.73,2.02,9.175,9.175,0,0,1-5.42-1.8,10.034,10.034,0,0,1-3.12-4.28,20.9,20.9,0,0,1-1.35-5.85q-.315-3.225-.31-6.38a18.136,18.136,0,0,1-2.71,2.47,24.087,24.087,0,0,1-3.54,2.25,13.768,13.768,0,0,1-4.06,1.35,11.132,11.132,0,0,1-4.27-.08,9.839,9.839,0,0,1-6.46-4.5,27.4,27.4,0,0,1-3.44-8.17,41.93,41.93,0,0,1-1.25-9.23q-.1-4.65-.1-7.8,3.12.3,4.17-.3a7.243,7.243,0,0,0,1.67-1.28,7.107,7.107,0,0,1,1.35-1.13,5.287,5.287,0,0,1,3.02-.15c0,.9-.07,2.33-.21,4.27s-.28,4.1-.42,6.45-.24,4.75-.31,7.2-.04,4.68.1,6.67a14.6,14.6,0,0,0,1.04,4.88C128.9,376.02,129.67,376.6,130.64,376.5Zm44.99-26.1a17.63,17.63,0,0,0,1.98-4.35,30.129,30.129,0,0,0,1.04-4.65,15.986,15.986,0,0,0,.1-4.05,3.98,3.98,0,0,0-1.04-2.55,3.392,3.392,0,0,0-1.88,2.33,18.069,18.069,0,0,0-.83,4.27,29.216,29.216,0,0,0,0,4.95,22.474,22.474,0,0,0,.63,4.05Z" transform="translate(701.559 259.346)" fill="#fff"/>
    <path id="Path_3" data-name="Path 3" d="M254.16,388.8a10.246,10.246,0,0,0,6.46-1.65,26.865,26.865,0,0,0,5.94-5.17,50.71,50.71,0,0,0,5.21-7.2q2.4-3.975,4.48-7.88t3.54-7.27a50.755,50.755,0,0,1,2.5-5.18,2.477,2.477,0,0,1,1.67-1.27,4.823,4.823,0,0,1,2.5-.08,3.072,3.072,0,0,1,1.88,1.2,1.724,1.724,0,0,1,.21,1.8q-2.295,4.2-5.42,10.2a89.11,89.11,0,0,1-7.19,11.55,42.111,42.111,0,0,1-9.37,9.38,19.675,19.675,0,0,1-11.77,3.83q-5.415,0-8.59-2.25a15.89,15.89,0,0,1-4.9-5.48,20.6,20.6,0,0,1-2.25-7.05c-.34-2.55-.59-4.88-.72-6.97v-1.2a61.067,61.067,0,0,1-6.04,6.6,47.74,47.74,0,0,1-7.08,5.55,28.285,28.285,0,0,1-7.92,3.52,19.073,19.073,0,0,1-8.75.23q-5.835-1.05-7.71-5.25a16.538,16.538,0,0,1-.94-9.68,34.222,34.222,0,0,1,4.48-11.47,44.468,44.468,0,0,1,8.85-10.72,41.021,41.021,0,0,1,11.98-7.43,24.877,24.877,0,0,1,13.75-1.5c.14-1.7.28-3.42.42-5.17s.34-3.52.62-5.33a245.621,245.621,0,0,1,4.07-26.02,92.541,92.541,0,0,1,7-21.3q4.35-8.925,10.6-13.42t15-2.4q5.625,1.35,7.81,5.47a18.553,18.553,0,0,1,1.77,10.13,53.4,53.4,0,0,1-2.92,13.35,141.662,141.662,0,0,1-6.14,15q-3.645,7.65-7.91,15.15t-8.23,13.95q-3.96,6.45-7.29,11.25t-5,7.05c0,.8-.04,2.17-.11,4.13s-.13,4.13-.2,6.53a68.425,68.425,0,0,0,.21,7.5c.21,2.6.48,5,.83,7.2a17.577,17.577,0,0,0,1.67,5.47,3.744,3.744,0,0,0,3,2.3Zm-15.41-45.9q-3.33-.9-7.71,1.5a44.56,44.56,0,0,0-8.75,6.45,62.7,62.7,0,0,0-8.12,9.22,51.161,51.161,0,0,0-5.73,9.83,17.437,17.437,0,0,0-1.67,8.17q.315,3.525,4.06,4.43c1.94.5,4.17-.08,6.67-1.73a46.448,46.448,0,0,0,7.5-6.3,101.719,101.719,0,0,0,7.29-8.33q3.54-4.5,5.83-7.8.21-3.9.21-7.72a72.011,72.011,0,0,1,.42-7.72Zm9.99,3.75q1.245-2.25,5.42-8.77t9.06-15.08q4.89-8.55,9.48-18a133.175,133.175,0,0,0,7.19-17.7q2.6-8.25,1.88-14.1a7.776,7.776,0,0,0-6.35-7.2,9.641,9.641,0,0,0-8.02,1.35,21.505,21.505,0,0,0-6.14,7.13,51.031,51.031,0,0,0-4.58,11.18q-1.875,6.45-3.23,13.73t-2.19,14.77q-.84,7.5-1.25,14.1-.42,4.65-.73,9.3Q248.95,342,248.74,346.65Z" transform="translate(701.559 259.346)" fill="#fff"/>
    <path id="Path_4" data-name="Path 4" d="M143.57,287.25a18.045,18.045,0,0,0-24.53-6.44,17.484,17.484,0,0,0-8.92,15.11,18.482,18.482,0,0,0-17.59.25,18.2,18.2,0,0,0-6.69,24.78,17.6,17.6,0,0,0,12.14,8.42l34.94,9.42a2.144,2.144,0,0,0,1.73-.25,2.525,2.525,0,0,0,1.24-1.49l9.17-34.94a17.584,17.584,0,0,0-1.49-14.86Z" transform="translate(701.559 259.346)" fill="#f48f00" stroke="#fff" stroke-miterlimit="10" stroke-width="5" fill-rule="evenodd"/>
    <path id="Path_5" data-name="Path 5" d="M338.19,333.52l8.26,26.89q.78,2.565,1.41,5.15t1.23,5.36h.07q.645-2.46,1.35-4.93c.47-1.65.95-3.37,1.42-5.15l4.06-15.28c.33-1.16.74-2.36,1.21-3.58a10.1,10.1,0,0,1,1.78-3.05v-.07l-5.59.29v-5.63h16.42v4.81a7.574,7.574,0,0,0-2.32.5,6.477,6.477,0,0,0-2.08,1.34,10.261,10.261,0,0,0-1.82,2.37,18.141,18.141,0,0,0-1.51,3.6l-11.93,38.9H343.7l-8.66-26.11a54.07,54.07,0,0,1-1.55-5.57q-.585-2.685-1.09-5.18h-.07c-.26,1.66-.56,3.25-.91,4.77s-.77,3.1-1.26,4.74l-8.3,27.35h-6.34l-13-39.29c-.26-.59-.52-1.21-.77-1.85s-.47-1.26-.66-1.87-.34-1.17-.46-1.69a6.237,6.237,0,0,1-.18-1.39l-3.88.21v-5.63h21.48v4.81h-.43a5.965,5.965,0,0,0-3.12.69,2.672,2.672,0,0,0-1.12,2.48,4.437,4.437,0,0,0,.07,1.07c.07.38.17.8.29,1.25l4.38,16.67c.21.83.42,1.62.62,2.35s.4,1.5.61,2.3.4,1.65.61,2.56.41,1.95.62,3.12h.07c.12-.43.28-1.05.5-1.87s.46-1.72.73-2.71.56-2.01.85-3.08.58-2.08.85-3.05.52-1.82.73-2.56.38-1.3.5-1.66l6.77-22.37h6.61Z" transform="translate(701.559 259.346)" fill="#fff"/>
    <path id="Path_6" data-name="Path 6" d="M406.64,364.97l-23.97.43a26.079,26.079,0,0,0,.55,5.54,12.933,12.933,0,0,0,1.76,4.38,8.641,8.641,0,0,0,3.17,2.89,10.088,10.088,0,0,0,4.81,1.05,11.436,11.436,0,0,0,2.46-.29,13.2,13.2,0,0,0,2.76-.93,16,16,0,0,0,2.83-1.69,14.707,14.707,0,0,0,2.67-2.58l3.28,3.1a21.132,21.132,0,0,1-4.17,4.56,20.088,20.088,0,0,1-4.43,2.71,18.288,18.288,0,0,1-4.38,1.3,25.428,25.428,0,0,1-4.01.34,19.3,19.3,0,0,1-7.34-1.35,16.135,16.135,0,0,1-5.7-3.88,17.63,17.63,0,0,1-3.69-6.09,23.167,23.167,0,0,1-1.3-8.01,20.877,20.877,0,0,1,1.3-7.35,19.764,19.764,0,0,1,3.69-6.22,17.854,17.854,0,0,1,5.75-4.31,17.177,17.177,0,0,1,7.5-1.6,22.892,22.892,0,0,1,4.036.359,16.53,16.53,0,0,1,3.854,1.191,14.825,14.825,0,0,1,3.42,2.19,12.4,12.4,0,0,1,2.72,3.35,18.128,18.128,0,0,1,1.8,4.7,24.279,24.279,0,0,1,.63,6.21Zm-16.1-12.89a6.5,6.5,0,0,0-2.87.61,6.725,6.725,0,0,0-2.19,1.67,8.565,8.565,0,0,0-1.51,2.58,15.025,15.025,0,0,0-.84,3.33h13.43a15.812,15.812,0,0,0-.53-3.81,7.415,7.415,0,0,0-1.26-2.55,4.691,4.691,0,0,0-1.87-1.41A6.432,6.432,0,0,0,390.54,352.08Z" transform="translate(701.559 259.346)" fill="#fff"/>
    <path id="Path_7" data-name="Path 7" d="M446.18,329.53v43.35c0,.36-.01.78-.02,1.28s-.03,1.03-.05,1.6-.05,1.16-.09,1.76-.08,1.18-.13,1.73l4.74-.21v5.56H436.77l-.39-3.38h-.07a14.167,14.167,0,0,1-5,3.54,14.5,14.5,0,0,1-5.29,1.02,13.283,13.283,0,0,1-10.63-5,17.423,17.423,0,0,1-3.01-5.82,25.685,25.685,0,0,1-1.07-7.66,24.465,24.465,0,0,1,1.3-8.14,19.426,19.426,0,0,1,3.67-6.43,16.75,16.75,0,0,1,5.7-4.24,17.481,17.481,0,0,1,7.39-1.53,14.214,14.214,0,0,1,3.58.41c1.03.27,2,.58,2.9.91v-4.84c0-.36.01-.78.02-1.28s.03-1.03.05-1.6.05-1.16.09-1.76.08-1.18.12-1.73l-5.13.21v-5.56a41.933,41.933,0,0,0,4.47-.21,28.825,28.825,0,0,0,3.31-.53,13.313,13.313,0,0,0,2.21-.69,4.657,4.657,0,0,0,1.23-.73h3.96Zm-16.35,49.58a6.64,6.64,0,0,0,3.46-.96,7.536,7.536,0,0,0,2.56-2.49V353.72a7.679,7.679,0,0,0-2.17-.94,10.643,10.643,0,0,0-2.99-.41,7.461,7.461,0,0,0-4.2,1.26,8.57,8.57,0,0,0-2.67,3.13,14.952,14.952,0,0,0-1.41,4.4,30.822,30.822,0,0,0-.41,5.02,25.283,25.283,0,0,0,.43,4.67A14.994,14.994,0,0,0,423.8,375a8.626,8.626,0,0,0,2.44,2.97,5.728,5.728,0,0,0,3.59,1.14Z" transform="translate(701.559 259.346)" fill="#fff"/>
    <path id="Path_8" data-name="Path 8" d="M489.67,329.53v43.35c0,.36-.01.78-.02,1.28s-.03,1.03-.05,1.6-.05,1.16-.09,1.76-.08,1.18-.13,1.73l4.74-.21v5.56H480.26l-.39-3.38h-.07a14.167,14.167,0,0,1-5,3.54,14.5,14.5,0,0,1-5.29,1.02,13.283,13.283,0,0,1-10.63-5,17.423,17.423,0,0,1-3.01-5.82,25.689,25.689,0,0,1-1.07-7.66,24.467,24.467,0,0,1,1.3-8.14,19.425,19.425,0,0,1,3.67-6.43,16.75,16.75,0,0,1,5.7-4.24,17.481,17.481,0,0,1,7.39-1.53,14.214,14.214,0,0,1,3.58.41c1.03.27,2,.58,2.9.91v-4.84c0-.36.01-.78.02-1.28s.03-1.03.05-1.6.05-1.16.09-1.76.08-1.18.12-1.73l-5.13.21v-5.56a41.933,41.933,0,0,0,4.47-.21,28.833,28.833,0,0,0,3.31-.53,13.313,13.313,0,0,0,2.21-.69,4.656,4.656,0,0,0,1.23-.73h3.96Zm-16.35,49.58a6.64,6.64,0,0,0,3.46-.96,7.537,7.537,0,0,0,2.56-2.49V353.72a7.679,7.679,0,0,0-2.17-.94,10.644,10.644,0,0,0-2.99-.41,7.461,7.461,0,0,0-4.2,1.26,8.571,8.571,0,0,0-2.67,3.13,14.954,14.954,0,0,0-1.41,4.4,30.819,30.819,0,0,0-.41,5.02,25.281,25.281,0,0,0,.43,4.67,15,15,0,0,0,1.37,4.15,8.626,8.626,0,0,0,2.44,2.97,5.728,5.728,0,0,0,3.59,1.14Z" transform="translate(701.559 259.346)" fill="#fff"/>
    <path id="Path_9" data-name="Path 9" d="M513.57,372.88c0,.36-.01.78-.02,1.28s-.03,1.03-.05,1.6-.05,1.16-.09,1.76-.08,1.18-.12,1.73l4.74-.21v5.56H498.9v-4.74a5.148,5.148,0,0,0,2.4-.46,2.962,2.962,0,0,0,1.3-1.32,5.757,5.757,0,0,0,.53-2.05c.07-.79.11-1.68.11-2.65V361.27c0-.88.02-1.89.05-3.03s.11-2.26.23-3.35l-5.13.21v-5.49a39.375,39.375,0,0,0,4.47-.22,30.961,30.961,0,0,0,3.31-.54,12.267,12.267,0,0,0,2.21-.71,4.923,4.923,0,0,0,1.23-.74h3.95v25.48Zm1.07-37.9a6.765,6.765,0,0,1-.39,2.32,6,6,0,0,1-1.09,1.89,4.755,4.755,0,0,1-1.71,1.28,5.3,5.3,0,0,1-2.23.46,5.625,5.625,0,0,1-2.3-.46,5.418,5.418,0,0,1-1.8-1.28,6.1,6.1,0,0,1-1.16-1.89,6.464,6.464,0,0,1-.41-2.32,6.182,6.182,0,0,1,.45-2.35,6.091,6.091,0,0,1,1.21-1.92,5.646,5.646,0,0,1,1.76-1.28,4.988,4.988,0,0,1,2.14-.46,5.213,5.213,0,0,1,2.19.46,5.464,5.464,0,0,1,1.76,1.28,6.014,6.014,0,0,1,1.16,1.92,6.569,6.569,0,0,1,.42,2.35Z" transform="translate(701.559 259.346)" fill="#fff"/>
    <path id="Path_10" data-name="Path 10" d="M560.37,372.88c0,.36-.01.78-.02,1.28s-.03,1.03-.05,1.6-.05,1.16-.09,1.76-.08,1.18-.13,1.73l4.74-.21v5.56H545.7v-4.74a5.148,5.148,0,0,0,2.4-.46,2.962,2.962,0,0,0,1.3-1.32,5.754,5.754,0,0,0,.54-2.04c.07-.79.11-1.68.11-2.65L550.01,363q-.03-4.8-1.46-7.04a4.9,4.9,0,0,0-4.45-2.24,8.9,8.9,0,0,0-3.65.78,11.771,11.771,0,0,0-3.01,1.88v16.5c0,.36-.01.78-.02,1.28s-.03,1.03-.05,1.6-.05,1.16-.09,1.76-.08,1.18-.12,1.73l4.74-.21v5.56H522.77v-4.74a5.147,5.147,0,0,0,2.4-.46,2.962,2.962,0,0,0,1.3-1.32,5.756,5.756,0,0,0,.53-2.05c.07-.79.11-1.68.11-2.65V361.09c0-.88.02-1.86.05-2.94s.11-2.17.23-3.26l-5.13.21v-5.49a39.361,39.361,0,0,0,4.47-.22,30.946,30.946,0,0,0,3.31-.54,12.275,12.275,0,0,0,2.21-.71,4.642,4.642,0,0,0,1.23-.74h3.6l.32,3.6h.11a18.678,18.678,0,0,1,2.44-1.57,23.019,23.019,0,0,1,2.81-1.3,20.918,20.918,0,0,1,2.81-.87,11.163,11.163,0,0,1,2.47-.32,15.137,15.137,0,0,1,5.68.94,8.864,8.864,0,0,1,3.81,2.9,12.93,12.93,0,0,1,2.15,5.02,34.1,34.1,0,0,1,.68,7.27v9.81Z" transform="translate(701.559 259.346)" fill="#fff"/>
    <path id="Path_11" data-name="Path 11" d="M604.47,349.51a3.114,3.114,0,0,1-1.12-.23,4.678,4.678,0,0,1-1.09-.61,3.778,3.778,0,0,1-.85-.89,2.741,2.741,0,0,1-.46-1.09,1.952,1.952,0,0,0-1,.64,7.184,7.184,0,0,0-.91,1.25,11.819,11.819,0,0,0-.71,1.48,7.534,7.534,0,0,0-.41,1.34,12.531,12.531,0,0,1,2.95,15.22,15.15,15.15,0,0,1-3.69,4.58,17.053,17.053,0,0,1-5.29,2.99,18.332,18.332,0,0,1-6.2,1.07,21.147,21.147,0,0,1-2.16-.12,22.032,22.032,0,0,0-2.26-.13,5.631,5.631,0,0,0-2.69.59,1.8,1.8,0,0,0-1.09,1.62,1.508,1.508,0,0,0,.5,1.14,3.727,3.727,0,0,0,1.6.75,21.381,21.381,0,0,0,2.88.48c1.19.13,2.64.24,4.35.34a60.024,60.024,0,0,1,7.64.91,20.563,20.563,0,0,1,5.89,1.98,10.03,10.03,0,0,1,3.81,3.44,9.666,9.666,0,0,1,1.35,5.29,8.672,8.672,0,0,1-.86,3.83,11.23,11.23,0,0,1-2.33,3.19,15.583,15.583,0,0,1-3.49,2.51,25.72,25.72,0,0,1-4.29,1.82,29.334,29.334,0,0,1-4.75,1.1,32.628,32.628,0,0,1-4.9.37,33.415,33.415,0,0,1-7.93-.8,15.811,15.811,0,0,1-5.13-2.14,7.982,7.982,0,0,1-2.76-3.05,8.1,8.1,0,0,1-.82-3.56,8.247,8.247,0,0,1,.34-2.32,7.185,7.185,0,0,1,1.14-2.26,10.207,10.207,0,0,1,2.12-2.07,13.622,13.622,0,0,1,3.31-1.73,9.1,9.1,0,0,1-2.53-1.1,6.654,6.654,0,0,1-1.67-1.51,5.42,5.42,0,0,1-.93-1.82,7.129,7.129,0,0,1-.29-2.01,6.6,6.6,0,0,1,.36-2.03,7.491,7.491,0,0,1,1.19-2.21,9.634,9.634,0,0,1,2.19-2.05,11.649,11.649,0,0,1,3.38-1.55v-.07a11.632,11.632,0,0,1-2.92-1.6,10.291,10.291,0,0,1-2.26-2.35,11.235,11.235,0,0,1-1.48-3.03,11.8,11.8,0,0,1-.53-3.63,12.731,12.731,0,0,1,1.37-5.88,14.682,14.682,0,0,1,3.65-4.59,17.06,17.06,0,0,1,5.2-2.99,17.442,17.442,0,0,1,6.02-1.07,17.883,17.883,0,0,1,2.1.13,22.021,22.021,0,0,1,2.32.39,17.194,17.194,0,0,1,2.28.69,9.8,9.8,0,0,1,2.03,1.07,23.7,23.7,0,0,1,1.46-3.26,13.608,13.608,0,0,1,2.01-2.83,9.342,9.342,0,0,1,2.6-1.99,6.912,6.912,0,0,1,3.19-.75,5.158,5.158,0,0,1,3.76,1.28,4.56,4.56,0,0,1,1.3,3.42,5.454,5.454,0,0,1-.21,1.44,3.98,3.98,0,0,1-2.12,2.52,4.414,4.414,0,0,1-2.16.45Zm-17.49,39.15c-.55-.02-1.14-.05-1.78-.07s-1.29-.06-1.94-.11-1.3-.1-1.94-.16-1.22-.14-1.75-.23a5.447,5.447,0,0,0-1.78,2.35,7.288,7.288,0,0,0-.57,2.71,4.924,4.924,0,0,0,.68,2.56,5.688,5.688,0,0,0,1.96,1.94,10.544,10.544,0,0,0,3.08,1.23,19.464,19.464,0,0,0,8.58-.1,12.259,12.259,0,0,0,3.31-1.37,6.411,6.411,0,0,0,2.01-1.87,3.773,3.773,0,0,0,.68-2.07c0-1.5-.85-2.63-2.56-3.4A22.824,22.824,0,0,0,586.98,388.66Zm-1.07-36.8a4.759,4.759,0,0,0-2.58.71,6.469,6.469,0,0,0-1.92,1.91,9.1,9.1,0,0,0-1.21,2.76,12.9,12.9,0,0,0-.41,3.24,16.589,16.589,0,0,0,.41,3.7,11.4,11.4,0,0,0,1.19,3.15,6.6,6.6,0,0,0,1.96,2.19,4.514,4.514,0,0,0,2.67.82,4.759,4.759,0,0,0,2.58-.71,6.088,6.088,0,0,0,1.89-1.89,9.072,9.072,0,0,0,1.16-2.65,11.65,11.65,0,0,0,.39-2.97,18.806,18.806,0,0,0-.37-3.76,12.192,12.192,0,0,0-1.14-3.28,7.046,7.046,0,0,0-1.92-2.33,4.358,4.358,0,0,0-2.7-.89Z" transform="translate(701.559 259.346)" fill="#fff"/>
    <path id="Path_12" data-name="Path 12" d="M610.45,333.52l21.26-.07a35.276,35.276,0,0,1,8.74,1,27.952,27.952,0,0,1,7.04,2.78,23.311,23.311,0,0,1,5.38,4.2,24.3,24.3,0,0,1,6.01,11.06,25.83,25.83,0,0,1,.73,6.07,28.245,28.245,0,0,1-.68,6.04,25.864,25.864,0,0,1-2.12,5.98,24.926,24.926,0,0,1-3.69,5.45,23.092,23.092,0,0,1-5.38,4.45,27.909,27.909,0,0,1-7.21,3.01,34.985,34.985,0,0,1-9.17,1.1H610.45v-4.81a18.435,18.435,0,0,0,2.19-.25,3.266,3.266,0,0,0,1.64-.78,3.921,3.921,0,0,0,1.02-1.85,12.974,12.974,0,0,0,.36-3.45V345.49c0-.66.01-1.32.02-1.96s.03-1.25.05-1.83.05-1.11.09-1.59.08-.87.12-1.18l-5.49.21v-5.62Zm21.13,4.81a12.273,12.273,0,0,0-2.37.14,3.039,3.039,0,0,0-1.67.82,4.128,4.128,0,0,0-1,1.89,13.057,13.057,0,0,0-.34,3.35v28.1c0,.67-.01,1.32-.02,1.96s-.03,1.25-.05,1.83-.05,1.11-.09,1.58-.08.87-.12,1.18c.36-.02.84-.04,1.44-.04s1.25.01,1.92.04,1.34.04,2,.05,1.19.02,1.62.02a13.758,13.758,0,0,0,6.86-1.62,14.136,14.136,0,0,0,4.72-4.31,19.16,19.16,0,0,0,2.74-6.14,28.464,28.464,0,0,0,.89-7.09,35.472,35.472,0,0,0-1.16-9.65,18.731,18.731,0,0,0-3.31-6.71,13.5,13.5,0,0,0-5.22-3.97,18.5,18.5,0,0,0-6.84-1.43Z" transform="translate(701.559 259.346)" fill="#fff"/>
    <path id="Path_13" data-name="Path 13" d="M679.84,372.88c0,.36-.01.78-.02,1.28s-.03,1.03-.05,1.6-.05,1.16-.09,1.76-.08,1.18-.12,1.73l4.74-.21v5.56H665.17v-4.74a5.147,5.147,0,0,0,2.4-.46,2.962,2.962,0,0,0,1.3-1.32,5.755,5.755,0,0,0,.53-2.05c.07-.79.11-1.68.11-2.65V361.27c0-.88.02-1.89.05-3.03s.11-2.26.23-3.35l-5.13.21v-5.49a39.366,39.366,0,0,0,4.47-.22,30.96,30.96,0,0,0,3.31-.54,12.269,12.269,0,0,0,2.21-.71,4.924,4.924,0,0,0,1.23-.74h3.95v25.48Zm1.07-37.9a6.765,6.765,0,0,1-.39,2.32,6,6,0,0,1-1.09,1.89,4.756,4.756,0,0,1-1.71,1.28,5.3,5.3,0,0,1-2.23.46,5.625,5.625,0,0,1-2.3-.46,5.417,5.417,0,0,1-1.8-1.28,6.093,6.093,0,0,1-1.16-1.89,6.461,6.461,0,0,1-.41-2.32,6.185,6.185,0,0,1,.45-2.35,6.092,6.092,0,0,1,1.21-1.92,5.645,5.645,0,0,1,1.76-1.28,4.987,4.987,0,0,1,2.14-.46,5.213,5.213,0,0,1,2.19.46,5.463,5.463,0,0,1,1.76,1.28,6.01,6.01,0,0,1,1.16,1.92,6.573,6.573,0,0,1,.42,2.35Z" transform="translate(701.559 259.346)" fill="#fff"/>
    <path id="Path_14" data-name="Path 14" d="M714.28,346.95a8.185,8.185,0,0,1,2.44.36,5.764,5.764,0,0,1,2.03,1.09,5.3,5.3,0,0,1,1.39,1.87,6.664,6.664,0,0,1,.52,2.74,5.838,5.838,0,0,1-.29,1.76,5.032,5.032,0,0,1-.89,1.66,4.573,4.573,0,0,1-1.58,1.23,5.326,5.326,0,0,1-2.37.48,6.3,6.3,0,0,1-1.53-.2,4.082,4.082,0,0,1-2.58-1.98,4.96,4.96,0,0,1-.59-2.1,4.044,4.044,0,0,0-2.23.73,10.467,10.467,0,0,0-2.1,1.82,15.124,15.124,0,0,0-1.73,2.33,10.859,10.859,0,0,0-1.07,2.24v11.9c0,.36-.01.78-.02,1.28s-.03,1.03-.05,1.6-.05,1.16-.09,1.76-.08,1.18-.12,1.73l4.74-.21v5.56H689.03v-4.74a5.147,5.147,0,0,0,2.4-.46,2.962,2.962,0,0,0,1.3-1.32,5.754,5.754,0,0,0,.53-2.05c.07-.79.11-1.68.11-2.65V361.09c0-.88.02-1.86.05-2.94s.11-2.17.23-3.26l-5.13.21v-5.49a39.366,39.366,0,0,0,4.47-.22,30.947,30.947,0,0,0,3.31-.54,12.271,12.271,0,0,0,2.21-.71,4.926,4.926,0,0,0,1.23-.74h3.6l.32,6.27h.11c.47-.64,1.05-1.35,1.73-2.14a15.941,15.941,0,0,1,2.35-2.19,13.79,13.79,0,0,1,2.94-1.71,8.9,8.9,0,0,1,3.49-.68Z" transform="translate(701.559 259.346)" fill="#fff"/>
  </g>
</svg>
