<svg height="496pt" viewBox="-70 0 496 496" width="496pt" xmlns="http://www.w3.org/2000/svg"><path d="m273.960938 155.664062v-5.703124l81.960937-24.59375-11.578125-38.589844c-10.105469-33.664063-29.945312-63.058594-57.382812-85.015625l-2.191407-1.761719h-63.953125l-40 88h-5.703125l-40-88h-63.953125l-2.191406 1.753906c-27.441406 21.957032-47.28125 51.351563-57.382812 85.007813l-11.585938 38.597656 81.960938 24.59375v5.703125c0 70.863281-13.34375 140.160156-39.664063 205.960938l-27.335937 68.335937 37.085937 7.414063c5.863281 1.175781 10.921875 4.5625 14.242187 9.535156 7.136719 10.707031 19.070313 17.097656 31.925782 17.097656h11.160156c5.984375 0 11.601562 2.328125 15.832031 6.550781l6.136719 6.136719c12.449219 12.457031 29.007812 19.3125 46.617188 19.3125 17.605468 0 34.167968-6.855469 46.625-19.3125l6.132812-6.136719c4.226562-4.222656 9.839844-6.550781 15.824219-6.550781h11.160156c12.855469 0 24.800781-6.390625 31.929687-17.089844 3.320313-4.972656 8.375-8.359375 14.238282-9.535156l37.089844-7.414062-27.335938-68.335938c-26.320312-65.800781-39.664062-135.105469-39.664062-205.960938zm-96 76.335938c-5.121094 0-9.960938-.351562-14.65625-.871094l14.65625-18.320312 14.65625 18.320312c-4.695313.519532-9.539063.871094-14.65625.871094zm-106.328126-194.832031.488282 2.457031c6.152344 30.742188 9.335937 62.191406 9.695312 93.582031l-23.855468-7.160156v-1.117187c0-30.035157 4.613281-59.441407 13.671874-87.761719zm212.65625 0c9.054688 28.320312 13.671876 57.726562 13.671876 87.761719v1.117187l-23.855469 7.160156c.359375-31.390625 3.542969-62.839843 9.695312-93.582031zm-24.289062 165.457031c-.457031.421875-1.449219 1.320312-3.046875 2.621094l-17.914063-13.429688c7.839844-4.425781 14.335938-9.136718 19.457032-13.390625.320312 8.085938.847656 16.160157 1.503906 24.199219zm-164.078125 0c.652344-8.050781 1.183594-16.113281 1.503906-24.210938 5.117188 4.257813 11.613281 8.96875 19.453125 13.394532l-17.910156 13.429687c-1.609375-1.292969-2.601562-2.191406-3.046875-2.613281zm31.167969 1.527344 10.804687 21.609375c-9.992187-3.203125-18.375-7.195313-24.949219-11zm17.484375-.816406c5.523437 1.558593 11.410156 2.761718 17.625 3.558593l-9.75 12.183594zm49.144531 3.558593c6.21875-.796875 12.097656-2 17.625-3.558593l-7.871094 15.742187zm24.304688 18.867188 10.808593-21.609375 14.144531 10.609375c-6.578124 3.804687-14.960937 7.796875-24.953124 11zm117.976562-111.121094-22.128906 6.640625c-.328125-28.113281-4.488282-55.6875-12.367188-82.394531 12.359375 15.480469 21.726563 33.183593 27.511719 52.480469zm-163.921875.296875 3.648437-10.9375h4.472657l3.648437 10.945312c1.398438 4.207032 2.113282 8.597657 2.113282 13.054688 0 4.40625-3.585938 8-8 8-4.417969 0-8-3.59375-8-8 0-4.457031.710937-8.847656 2.117187-13.0625zm-10.703125-18.488281-4.472656 13.421875c-1.949219 5.847656-2.941406 11.953125-2.941406 18.128906 0 13.230469 10.765624 24 24 24 13.230468 0 24-10.769531 24-24 0-6.175781-.992188-12.28125-2.945313-18.121094l-4.472656-13.429687 36.570312-80.449219h41.09375l-4.09375 20.480469c-6.738281 33.648437-10.152343 68.121093-10.152343 102.464843v16.71875c0 .433594.03125.855469.03125 1.289063-6.984376 7.582031-35.359376 35.046875-80.03125 35.046875-44.425782 0-72.992188-27.480469-80.03125-35.0625 0-.425781.03125-.847656.03125-1.28125v-16.71875c0-34.34375-3.417969-68.816406-10.152344-102.457031l-4.089844-20.480469h41.097656zm-134.472656-5.089844c5.785156-19.296875 15.160156-37 27.511718-52.480469-7.878906 26.707032-12.039062 54.28125-12.367187 82.394532l-22.125-6.640626zm273.832031 330.328125c-10.046875 2.007812-18.71875 7.816406-24.414063 16.34375-4.160156 6.242188-11.121093 9.96875-18.617187 9.96875h-9.289063c-7.140624-31.945312-12.695312-64.496094-16.40625-96.910156l-15.886718 1.820312c3.742187 32.691406 9.335937 65.53125 16.503906 97.761719-4.890625 1.902344-9.402344 4.753906-13.21875 8.574219l-6.132812 6.136718c-7.519532 7.511719-17.027344 12.28125-27.3125 13.9375v-151.320312h-16v151.3125c-10.289063-1.648438-19.792969-6.425781-27.3125-13.9375l-6.136719-6.136719c-3.816407-3.824219-8.328125-6.671875-13.214844-8.574219 7.175781-32.230468 12.765625-65.0625 16.503906-97.761718l-15.890625-1.824219c-3.710937 32.425781-9.269531 64.976563-16.40625 96.921875h-9.289062c-7.503906 0-14.460938-3.726562-18.613282-9.96875-5.699218-8.527344-14.371093-14.335938-24.417968-16.34375l-18.222656-3.648438 20.191406-50.480468c18.847656-47.117188 31.0625-96 36.855468-145.933594 7.679688 5.566406 19.777344 12.925781 35.953126 18.472656v5.160156c0 29.957032-1.472657 60.222657-4.367188 89.957032l15.917969 1.554687c2.953125-30.242187 4.449219-61.035156 4.449219-91.503906v-.722656c7.390624 1.617187 15.398437 2.730469 24 3.175781v32.28125h16v-32.28125c8.597656-.445312 16.605468-1.558594 24-3.175781v.722656c0 30.46875 1.496093 61.261719 4.445312 91.511719l15.921875-1.554688c-2.894531-29.734375-4.367187-60-4.367187-89.957031v-5.160156c16.175781-5.546875 28.269531-12.90625 35.949218-18.472657 5.785156 49.925782 18.011719 98.816407 36.859375 145.933594l20.191407 50.480469zm0 0"/><path d="m169.960938 296h16v16h-16zm0 0"/></svg>