<?xml version="1.0"?>
<svg xmlns="http://www.w3.org/2000/svg" id="Icons" viewBox="0 0 74 74" width="512" height="512"><path d="M51.828,72a10.906,10.906,0,0,1-10.9-12.094c.409-4.648,1.143-16.683-.871-28.02A64.461,64.461,0,0,1,38.99,20.528V12.885A10.9,10.9,0,0,1,49.875,2,19.087,19.087,0,0,1,68.939,21.065c.016.39.388,10.489-.723,14.258l-.389,1.314c-1.893,6.383-4.754,16.029-5.113,25.028A10.936,10.936,0,0,1,51.828,72ZM49.875,4a8.9,8.9,0,0,0-8.885,8.885v7.643a62.515,62.515,0,0,0,1.038,11.008c2.056,11.573,1.31,23.818.894,28.545a8.932,8.932,0,1,0,17.8,1.5h0c.369-9.248,3.272-19.038,5.194-25.516l.388-1.312c1.019-3.457.646-13.553.642-13.654A17.094,17.094,0,0,0,49.875,4Z"/><path d="M65.9,43.3,63.9,43.141c.509-6.374-.183-11.738-2.057-15.944l1.827-.813C65.684,30.9,66.432,36.589,65.9,43.3Z"/><path d="M42.346,46.439l-.632-1.9c3.134-1.043,3.023-5.891,2.905-11.022-.125-5.488-.268-11.708,3.738-14.737a8.012,8.012,0,0,1,9.461.109A17.047,17.047,0,0,1,61.6,22.726l-1.623,1.168a15.046,15.046,0,0,0-3.338-3.386,6,6,0,0,0-7.079-.129c-3.187,2.41-3.063,7.842-2.943,13.094C46.748,39.105,46.881,44.929,42.346,46.439Z"/><path d="M55.306,18.423h-2a8.841,8.841,0,0,0-1.215-3.991l1.7-1.049A10.913,10.913,0,0,1,55.306,18.423Z"/><path d="M31.649,46.441c-4.532-1.511-4.4-7.333-4.269-12.965.121-5.254.245-10.687-2.944-13.1a5.989,5.989,0,0,0-7.078.132c-3.2,2.331-8.4,8.371-7.266,22.631L8.1,43.3C6.885,28.069,12.642,21.471,16.18,18.894a8,8,0,0,1,9.461-.111c4.006,3.029,3.864,9.251,3.738,14.74-.118,5.131-.229,9.978,2.9,11.021Z"/><path d="M20.694,18.423h-2a10.913,10.913,0,0,1,1.512-5.04l1.7,1.047A8.976,8.976,0,0,0,20.694,18.423Z"/><path d="M22.173,72A10.936,10.936,0,0,1,11.285,61.665c-.36-9-3.22-18.645-5.113-25.028l-.389-1.314c-1.11-3.769-.738-13.868-.721-14.3A19.077,19.077,0,0,1,24.125,2a10.813,10.813,0,0,1,8.608,4.239L31.151,7.462A8.826,8.826,0,0,0,24.125,4,17.085,17.085,0,0,0,7.061,21.065c0,.14-.377,10.235.641,13.692l.388,1.311c1.921,6.479,4.825,16.269,5.194,25.517A8.954,8.954,0,0,0,26,69.162a9.064,9.064,0,0,0,5.075-9.08c-.416-4.729-1.161-16.978.894-28.545A62.506,62.506,0,0,0,33.01,20.528V12.885a8.921,8.921,0,0,0-.292-2.222l1.937-.5a10.917,10.917,0,0,1,.355,2.721v7.643a64.452,64.452,0,0,1-1.069,11.358c-2.013,11.332-1.279,23.371-.871,28.021A10.9,10.9,0,0,1,22.173,72Z"/></svg>
