<?xml version="1.0" encoding="iso-8859-1"?>
<!-- Generator: Adobe Illustrator 19.0.0, SVG Export Plug-In . SVG Version: 6.00 Build 0)  -->
<svg version="1.1" id="Layer_1" xmlns="http://www.w3.org/2000/svg" xmlns:xlink="http://www.w3.org/1999/xlink" x="0px" y="0px"
	 viewBox="0 0 506.977 506.977" style="enable-background:new 0 0 506.977 506.977;" xml:space="preserve">
<g transform="translate(1 1)">
	<g>
		<path d="M504.173,334.835l-0.853-1.707c-4.267-14.507-15.36-25.6-29.013-31.573c-11.093-5.12-28.16-12.8-46.08-23.04
			l-24.747-15.36c-28.16-18.773-45.227-38.4-51.2-56.32c0-0.817-3.916-14.157-12.491-30.273c0.61-2.756,0.744-5.274,0.544-7.273
			c0-33.28,7.68-46.933,7.68-46.933c14.507-25.6,9.387-42.667,1.707-52.053c-5.973-7.68-16.213-11.947-26.453-11.093
			c-10.38,0.944-22.382,3.514-34.171,7.02c-0.79-32.563-26.924-58.22-59.696-58.22c-32.616,0-58.657,25.412-59.684,57.753
			c-11.775-3.273-23.751-5.633-34.182-6.553c-10.24-0.853-20.48,3.413-27.307,11.947c-7.68,9.387-13.653,26.453,1.707,52.907
			c0,0,7.586,12.151,8.45,40.731c-27.12,34.385-25.517,88.201-25.517,90.682c0,43.52-54.613,97.28-77.653,117.76
			C4.973,382.622-1,396.275-1,409.928c0,18.773,14.507,33.28,33.28,33.28h98.633c-0.019,5.685,0.928,11.439,2.914,17.067v1.707
			c3.413,8.533,9.387,14.507,17.067,18.773c4.267,2.56,9.387,3.413,14.507,3.413c3.413,0,7.68,0,11.093-1.707l83.327-28.702
			c12.34,26.693,38.9,43.208,67.713,43.208c8.533,0,16.213-0.853,24.747-4.267c35.795-13.523,55.265-50.773,46.683-86.869
			l84.73-29.185C500.76,370.675,510.147,351.902,504.173,334.835z M346.307,476.488c-27.307,10.24-57.173-2.56-69.973-28.16
			L383,412.488C388.12,438.942,372.76,467.102,346.307,476.488z M168.981,203.006c13.313-1.253,26.626-5.378,39.939-12.384
			l9.593-4.796c0.4,0.095,0.799,0.194,1.203,0.28l-29.569,59.984l-3.413-17.92c-0.853-2.56-1.707-5.12-4.267-5.973
			c-1.707-0.853-2.56-0.853-4.267-0.853c-0.853,0-2.56,0-3.413,0l-19.156,7.663L168.981,203.006z M230.253,101.875
			c18.645,0,33.915,15.152,34.124,33.75c-0.207,15.15-10.379,27.734-24.737,31.957c-0.849,0.425-1.645,0.902-2.363,1.432
			c-2.482,0.587-4.963,1.063-7.445,1.115c-2.121-0.045-3.939-0.413-5.866-0.897c-0.893-0.775-1.946-1.361-3.1-1.65
			c-15.245-4.235-24.594-16.879-24.734-32.086C196.411,116.957,211.652,101.875,230.253,101.875z M272.92,228.168l-3.076,16.916
			l-30.158-58.729c0.554,0,1.107,0,1.661,0l10.24,5.12c12.8,6.827,26.453,11.093,40.96,11.947l12.922,25.844l-20.602-7.924
			c-1.707-1.707-4.267-0.853-6.827,0c-0.909,0.606-1.596,1.214-2.151,1.858C274.311,224.6,273.607,226.107,272.92,228.168z
			 M324.973,76.275c4.267,0,8.533,1.707,10.24,4.267c5.973,7.68,5.12,18.773-2.56,33.28c-0.853,1.707-9.387,17.92-9.387,56.32
			c0.527,1.054,0.399,5.361-2.988,9.306c-2.483,2.484-5.752,4.041-9.812,5.201c0,0-1.707,0.853-5.12,0.853c-1.707,0-3.413,0-5.12,0
			h-1.707c-1.131,0-2.258,0.181-3.315,0.588c-11.963-1.124-23.258-4.256-33.884-9.393c9.09-6.795,15.534-16.621,18.421-27.607
			c0.042-0.159,0.087-0.318,0.128-0.477c0.141-0.56,0.269-1.123,0.392-1.688c0.087-0.396,0.17-0.794,0.248-1.194
			c0.087-0.449,0.169-0.899,0.243-1.352c0.087-0.524,0.163-1.052,0.234-1.582c0.05-0.378,0.103-0.756,0.145-1.136
			c0.07-0.627,0.121-1.26,0.168-1.893c0.022-0.305,0.053-0.608,0.07-0.914c0.052-0.937,0.083-1.88,0.083-2.83
			c0-0.005,0-0.01,0-0.015s0-0.01,0-0.015c0-0.95-0.031-1.892-0.083-2.83c-0.017-0.306-0.048-0.61-0.07-0.915
			c-0.047-0.633-0.098-1.264-0.167-1.891c-0.042-0.381-0.095-0.76-0.146-1.14c-0.071-0.529-0.146-1.056-0.233-1.579
			c-0.075-0.452-0.157-0.902-0.243-1.352c-0.078-0.4-0.161-0.798-0.248-1.194c-0.123-0.565-0.251-1.128-0.392-1.688
			c-0.041-0.16-0.086-0.318-0.128-0.477c-2.91-11.079-9.435-20.983-18.646-27.784c6.039-3.225,13.612-6.498,22.065-9.482
			c0.011-0.004,0.022-0.01,0.033-0.014C296.66,80.991,311.793,77.329,324.973,76.275z M186.733,71.155c0-0.853,0-2.56-0.853-3.413
			c0-23.893,18.773-42.667,42.667-42.667c23.893,0,42.667,18.773,42.667,42.667c0,1.707,0,2.56,0,4.267
			c-11.784,4.209-21.901,9.247-28.726,14.298c-1.853-0.459-3.747-0.81-5.672-1.06c-6.478-1.126-12.955-0.776-19.433,1.049
			c-4.392-3.201-10.06-6.358-16.515-9.33C196.604,74.864,191.88,72.87,186.733,71.155z M122.733,81.395
			c1.707-3.413,5.973-5.12,10.24-5.12c0,0,0.853,0,2.56,1.707c20.575,1.646,46.703,9.642,63.08,17.864
			c-11.888,9.397-19.56,23.923-19.56,40.163c0,10.784,3.388,20.811,9.14,29.087c2.946,4.44,6.624,8.376,10.909,11.727
			c-11.579,6.348-23.949,9.532-37.116,9.532c-1.208,0-2.308,0.325-3.302,0.853c-0.58,0-1.176,0-1.818,0
			c-3.413-0.853-5.12-0.853-5.12-0.853c-14.507-4.267-14.507-13.653-14.507-16.213c0-38.4-10.24-54.613-11.093-55.467
			C117.613,100.168,116.76,89.075,122.733,81.395z M16.067,409.928c0-8.533,4.267-17.92,10.24-23.04
			c31.573-28.16,83.627-82.773,83.627-131.413c0-0.848-0.834-37.891,14.206-67.657c4.09,6.107,10.837,11.844,21.634,14.751h0
			c0.853,0.853,1.707,0.853,2.56,0.853l-20.48,40.107c-0.853,2.56-0.853,6.827,1.707,9.387c1.771,1.771,3.951,2.724,6.257,2.578
			c1.293,0.071,2.638-0.199,3.983-0.872l31.639-12.489l6.761,32.116c9.387,46.933-25.6,116.053-40.96,143.36
			c-0.853,2.56-2.56,5.12-3.413,8.533H32.28C22.893,426.142,16.067,418.462,16.067,409.928z M486.253,355.315
			c-1.707,3.413-5.12,5.973-9.387,7.68l-82.619,27.769l-0.154-0.463l-140.8,47.787l0.019,0.046l-83.646,28.114
			c-3.413,1.707-8.533,0.853-11.947-0.853s-5.973-5.12-7.68-9.387l-0.853-1.707c-1.644-4.521-2.288-9.438-1.952-14.275
			c0.773-0.824,1.44-1.768,1.952-2.792c0.853-4.267,1.707-8.533,3.413-11.093c20.06-35.104,51.574-101.315,43.237-151.328
			l33.854-67.708l35.548,69.703c0.169,0.254,0.359,0.506,0.56,0.757c0.095,0.12,0.194,0.236,0.294,0.351
			c0.129,0.148,0.262,0.294,0.401,0.437c0.095,0.098,0.189,0.197,0.288,0.291c1.842,1.776,4.416,3.075,6.991,2.431
			c3.413-0.853,5.973-3.413,6.827-6.827l6.827-32.427l33.28,13.653c3.413,0.853,6.827,0,9.387-2.56
			c1.771-1.771,2.724-3.952,2.578-6.257c0.07-1.293-0.199-2.637-0.872-3.983l-19.865-39.73c0.648-0.374,1.297-0.377,1.945-0.377
			c5.973-1.707,10.24-4.267,13.653-6.827c4.267,10.24,6.827,17.92,6.827,17.92c7.68,22.187,27.307,44.373,58.027,65.707l25.6,16.213
			c18.773,11.093,36.693,18.773,47.787,23.893c9.387,4.267,16.213,11.947,19.627,21.333l1.707,2.56
			C488.813,346.782,487.96,351.902,486.253,355.315z"/>
	</g>
</g>
<g>
</g>
<g>
</g>
<g>
</g>
<g>
</g>
<g>
</g>
<g>
</g>
<g>
</g>
<g>
</g>
<g>
</g>
<g>
</g>
<g>
</g>
<g>
</g>
<g>
</g>
<g>
</g>
<g>
</g>
</svg>
