<svg id="Layer_1" enable-background="new 0 0 512 512" height="512" viewBox="0 0 512 512" width="512" xmlns="http://www.w3.org/2000/svg"><g><g><path d="m218.12 313.994c2.721-3.123 2.396-7.86-.727-10.582-3.123-2.721-7.86-2.396-10.582.727-4.391 5.041-12.194 5.037-16.582 0-2.721-3.122-7.459-3.447-10.582-.727-3.123 2.722-3.448 7.459-.727 10.582 10.371 11.9 28.838 11.89 39.2 0z"/><path d="m333.118 313.994c2.722-3.123 2.396-7.86-.727-10.582-3.124-2.721-7.861-2.396-10.582.727-4.391 5.04-12.192 5.037-16.583 0-2.722-3.124-7.459-3.448-10.582-.726-3.123 2.721-3.448 7.459-.726 10.581 10.371 11.9 28.839 11.89 39.2 0z"/><path d="m278.889 322.157c2.721-3.122 2.396-7.86-.727-10.581-3.124-2.721-7.861-2.396-10.582.728-6.164 7.073-17.118 7.067-23.277 0-2.721-3.123-7.459-3.449-10.582-.728s-3.448 7.459-.727 10.581c12.143 13.936 33.765 13.922 45.895 0z"/><path d="m453.954 24.972c-69.482-27.396-171.041-13.415-245.566 10.511-12.689 4.073-25.121 8.565-37.198 13.421-12.92-27.991-46.9-38.965-73.666-24.206-7.492-13.851-23.994-24.698-43.325-24.698-45.265 0-70.912 57.263-41.653 95.944-8.801 8.254-13.531 20.271-12.373 32.573 1.136 12.073 7.799 22.809 17.675 29.317-11.663 17.64-17.81 35.165-17.81 51.586 0 40.628 34.809 64.752 73.963 75.976 3.78 6.049 8.239 11.657 13.286 16.705l21.256 21.257c8.221 31.24 26.58 59.562 51.878 79.935 3.223 2.597 7.946 2.091 10.545-1.137 2.598-3.226 2.089-7.947-1.137-10.545-21.52-17.331-37.455-41.037-45.416-67.3 59.787-21.007 112.597-57.361 153.582-105.72 23.152 26.821 56.451 41.807 91.169 41.805 7.251 0 14.566-.657 21.861-1.993 16.637 85.773-49.538 163.597-135.006 163.597-21.928 0-42.975-5.06-62.357-14.945-3.689-1.881-8.207-.416-10.088 3.274-1.882 3.689-.417 8.207 3.273 10.089 4.794 2.445 9.728 4.615 14.761 6.533-.727.611-1.464 1.212-2.17 1.848-26.432-2.899-43.257 27.63-27.038 48.493-.913 5.058-1.375 10.217-1.375 15.388v11.82c0 4.143 3.358 7.5 7.5 7.5h154.988c4.143 0 7.5-3.357 7.5-7.5v-11.82c0-5.169-.462-10.328-1.375-15.387 16.213-20.854-.586-51.391-27.053-48.493-.696-.627-1.42-1.219-2.135-1.822 44.371-16.971 78.849-54.05 92.164-100.008 22.693-.847 40.892-19.573 40.892-42.47 0-19.236-12.849-35.519-30.412-40.739l12.555-12.556c8.398-8.399 13.841-18.883 15.882-30.479 10.648-8.031 20.323-16.344 28.765-24.749 2.936-2.923 2.946-7.671.024-10.606-2.924-2.938-7.673-2.947-10.607-.024-5.466 5.441-11.494 10.854-18.003 16.18-1.875-11.771-7.393-22.731-16.062-31.401l-5.717-5.716c-12.949-12.951-30.167-20.083-48.481-20.083h-45.677c-9.31 0-18.243 2.451-26.063 7.05-5.419-14.421-19.353-24.71-35.642-24.71h-57.939c-36.412 0-70.644 14.181-96.39 39.93l-22.453 22.453c-25.869 25.869-34.017 64.001-22.278 97.575-26.848-10.238-49.971-28.502-49.971-57.205 0-25.91 19.182-56.063 54.012-84.902 36.311-30.066 87.424-56.614 143.923-74.753 132.284-42.468 257.485-28.305 280.379 27.176 2.421 5.869 3.649 12.139 3.649 18.636 0 14.902-6.22 31.055-18.485 48.008-2.429 3.356-1.676 8.045 1.68 10.473 3.355 2.429 8.044 1.676 10.473-1.68 14.154-19.565 21.332-38.676 21.332-56.801 0-34.65-25.857-57.914-58.046-70.605zm-166.94 408.864c-1.345 12.012-16.586 18.384-25.152 7.748-2.999-3.723-8.68-3.727-11.683 0-8.556 10.626-23.83 4.28-25.155-7.78 21.2 4.398 42.261 4.112 61.99.032zm-101.3 35.889c-11.117-10.758-.807-29.447 14.287-25.617 2.549.646 5.247-.089 7.115-1.937 1.161-1.148 2.367-2.252 3.609-3.317 4.053 17.67 22.282 26.98 37.794 21.643v36.503h-32.496v-4.32c0-5.367.601-10.714 1.785-15.894.923-4.038-1.602-8.061-5.64-8.983-4.037-.926-8.06 1.603-8.983 5.64-1.434 6.275-2.162 12.747-2.162 19.237v4.32h-14.998v-4.32c0-5.367.601-10.714 1.785-15.894.584-2.558-.21-5.236-2.096-7.061zm140.611 0c-1.885 1.825-2.68 4.502-2.096 7.06 1.184 5.184 1.784 10.531 1.784 15.896v4.319h-14.998v-4.32c0-6.49-.728-12.962-2.162-19.237-.923-4.037-4.945-6.563-8.983-5.64s-6.563 4.945-5.64 8.982c1.184 5.181 1.785 10.528 1.785 15.895v4.32h-32.496v-36.504c15.525 5.345 33.738-3.991 37.792-21.633 1.235 1.062 2.437 2.166 3.6 3.314 1.87 1.846 4.567 2.58 7.116 1.933 15.136-3.848 25.388 14.882 14.298 25.615zm102.181-185.225c0 13.381-9.605 24.561-22.282 27.004 1.552-8.694 2.361-17.642 2.361-26.773 0-9.086-.826-18.216-2.461-27.253 12.727 2.403 22.382 13.606 22.382 27.022zm-330.613-104.845 22.453-22.454c22.913-22.915 53.378-35.535 85.783-35.535h57.939c12.711 0 23.055 10.342 23.059 23.052 0 .108.002.218.007.327.116 2.758 1.742 5.239 4.244 6.442 2.599 1.25 5.683.899 7.934-.903.217-.174.427-.361.625-.561 6.903-6.898 16.078-10.697 25.835-10.697h45.677c14.307 0 27.757 5.571 37.873 15.689l5.717 5.716c9.224 9.225 13.629 21.966 12.087 34.958-1.131 9.519-5.31 18.132-12.087 24.91l-22.097 22.099c-39.326 9.002-79.868-4.968-105.318-35.983 4.657-5.979 9.091-12.034 13.203-18.065 2.334-3.422 1.451-8.088-1.972-10.421-3.422-2.335-8.089-1.451-10.422 1.972-4.966 7.283-10.412 14.614-16.188 21.789-.001.001-.002.002-.002.003-40.483 50.358-93.977 87.945-154.94 108.915l-19.412-19.413c-4.859-4.86-9.071-10.338-12.519-16.282-17.946-30.943-12.798-70.237 12.521-95.558zm-43.694-164.655c9.61 0 18.645 3.742 25.44 10.538 16.378 16.378 5.506 44.541-14.372 44.541-15.902 0-24.517-16.687-14.373-26.83 2.929-2.93 2.929-7.678 0-10.607-2.929-2.928-7.678-2.928-10.607 0-19.496 19.497-4.435 52.438 24.979 52.438 23.635 0 39.951-22.746 36.982-45.712 19.234-12.624 45.188-5.347 55.102 15.336-35.525 15.465-67.457 34.064-93.05 54.367-13.409-1.603-25.943-7.676-35.54-17.274-28.154-28.155-9.504-76.797 25.439-76.797zm-27.49 130.723c-6.481-3.988-10.873-10.861-11.603-18.613-.724-7.697 2.261-15.218 7.809-20.344 7.917 6.666 17.097 11.606 26.942 14.556-8.837 8.044-16.573 16.21-23.148 24.401z"/></g></g></svg>