<svg height="512" viewBox="0 0 60 53" width="512" xmlns="http://www.w3.org/2000/svg"><g id="Page-1" fill="none" fill-rule="evenodd"><g id="003---Gems" fill="rgb(0,0,0)" fill-rule="nonzero"><path id="Shape" d="m53.894 23.406c-.1875939-.2540684-.4841832-.4045875-.8-.406h-9.182l3.837-4.337c.312615-.3492324.3384617-.8695026.062-1.248l-8-11c-.1879639-.26058965-.4896943-.4149893-.811-.415h-30c-.32006045-.00004451-.62080446.1531156-.809.412l-8 11c-.27685062.378381-.25099041.898922.062 1.248l23 26c.189833.2152504.4629994.3385622.75.3385622s.560167-.1233118.75-.3385622l4.947-5.591 11.538 13.578c.19.2235719.4685986.352423.762.352423s.572-.1288511.762-.352423l17-20c.3046547-.3504631.3238065-.8658946.046-1.238zm3.124 7.594h-6.3l-3.326-6h5.192zm-28.612-23 4.909 9h-18.63l4.909-9zm-16.069 11 2.282 5.39c.1393336.3290416.4436247.558755.7982499.6026094s.7057084-.1048128.921-.39.2620837-.6635678.1227501-.9926094l-1.952-4.61h18.958l-9.481 21.548-5.422-11.961c-.1428052-.3328117-.4543916-.5624043-.8145684-.6002152-.3601767-.0378108-.7126495.1220697-.921456.4179697-.2088066.2958999-.2413112.6815712-.0849756 1.0082455l4.531 10-18.054-20.413zm23.316 0h9.127l-11.4 12.885-.006.007-6.754 7.637zm6.347 29.46-6.632-15.46h13.246zm8.79-15.46h6.048l-12.179 14.328zm-5.683-8 3.326 6h-11.6l5.308-6zm-.071-8h-9.442l-4.909-9h7.806zm-35.527-9h7.806l-4.909 9h-9.442zm24.291 26.427 5.529 12.891-8.3-9.762z"/><path id="Shape" d="m39 4c.5522847 0 1-.44771525 1-1v-2c0-.55228475-.4477153-1-1-1s-1 .44771525-1 1v2c0 .55228475.4477153 1 1 1z"/><path id="Shape" d="m43 6c.1971916-.00015304.3899366-.05860276.554-.168l1.846-1.232c.3119934-.19181027.4941736-.5388286.4748821-.90455927-.0192916-.36573067-.2369682-.69165736-.5674094-.84958052-.3304411-.15792317-.7207767-.12257535-1.0174727.09213979l-1.845 1.23c-.3666557.24448513-.5300428.7001723-.4022708 1.12193492.127772.42176263.5165789.71016397.9572708.71006508z"/><path id="Shape" d="m23.845 47c-.5522847 0-1 .4477153-1 1v2c0 .5522847.4477153 1 1 1s1-.4477153 1-1v-2c0-.5522847-.4477153-1-1-1z"/><path id="Shape" d="m18 48.23c.1971916-.000153.3899366-.0586028.554-.168l1.844-1.23c.3042178-.195156.4794522-.5392835.4583434-.9001003s-.2352753-.6821632-.5601743-.8405141-.7099611-.1290596-1.0071691.0766144l-1.844 1.232c-.364768.245122-.5267481.6996672-.3992007 1.1202289s.5147249.7085591.9542007.7097711z"/></g></g></svg>