<?xml version="1.0" encoding="iso-8859-1"?>
<!-- Generator: Adobe Illustrator 19.0.0, SVG Export Plug-In . SVG Version: 6.00 Build 0)  -->
<svg version="1.1" id="Capa_1" xmlns="http://www.w3.org/2000/svg" xmlns:xlink="http://www.w3.org/1999/xlink" x="0px" y="0px"
	 viewBox="0 0 511.999 511.999" style="enable-background:new 0 0 511.999 511.999;" xml:space="preserve">
<g>
	<g>
		<path d="M465.532,470.601h-10.669v-91.854c0-12.751-10.373-23.125-23.125-23.125h-16.382
			c-0.402-15.868-13.426-28.655-29.389-28.655H281.972v-12.049c0-4.122-3.341-7.462-7.462-7.462c-4.121,0-7.462,3.34-7.462,7.462
			v12.049H223.66c-4.121,0-7.462,3.34-7.462,7.462s3.341,7.462,7.462,7.462h162.307c7.734,0,14.071,6.093,14.465,13.731H153.087
			c0.393-7.638,6.73-13.731,14.464-13.731h22.037c4.121,0,7.462-3.34,7.462-7.462s-3.341-7.462-7.462-7.462h-22.037
			c-15.963,0-28.987,12.787-29.389,28.655H121.78c-12.751,0-23.125,10.374-23.125,23.125v33.988
			c-7.066-1.303-11.262-3.94-13.742-10.231c-2.683-6.806-10.808-62.278-7.146-79.992c3.909-18.914,19.125-36.605,41.747-48.536
			c23.996-12.657,53.272-22.413,76.405-25.459c73.58-9.681,148.213,11.985,205.181,59.465l1.483,5.975
			c2.847,11.47,13.28,19.24,24.646,19.239c1.865,0,3.757-0.21,5.642-0.646l0.392-0.09c6.673-1.544,12.319-5.61,15.9-11.45
			c3.578-5.836,4.641-12.708,2.993-19.351l-70.095-282.42c-3.314-13.35-16.915-21.687-30.284-18.595l-0.405,0.093
			c-6.669,1.542-12.311,5.604-15.889,11.438c-3.579,5.837-4.642,12.713-2.993,19.36l1.769,7.129
			c-12.775,31.15-31.076,59.253-54.449,83.543c-23.794,24.729-51.722,44.371-83.007,58.384c-9.123,4.086-18.786,7.203-29.016,10.501
			c-8.341,2.69-16.966,5.472-25.22,8.819c-16.276,6.601-37.39,15.866-56.357,29.029c-28.226,19.589-47.39,45.403-53.96,72.685
			c-4.099,17.021-3.884,36.522,0.656,59.616c0.1,0.509,10.723,51.986,17.991,63.182c7.13,11.061,18.414,19.448,30.937,23.004
			c3.113,0.895,6.324,1.512,9.513,1.831c1.625,0.169,3.269,0.259,4.886,0.268l1.038,0.006c0.013,0,0.027,0,0.04,0
			c0.056,0,0.112-0.001,0.168-0.002l1.18-0.034v21.105H87.986c-9.449,0-17.137,7.687-17.137,17.136v7.126
			c0,9.449,7.687,17.136,17.137,17.136h377.546c9.449,0,17.137-7.687,17.137-17.136v-7.126
			C482.669,478.289,474.981,470.601,465.532,470.601z M348.203,19.978c1.47-2.397,3.789-4.066,6.551-4.706l0.352-0.082
			c0.778-0.18,1.558-0.266,2.328-0.266c4.681,0,8.972,3.195,10.142,7.909l70.095,282.42c0.678,2.73,0.24,5.556-1.231,7.955
			c-1.473,2.403-3.797,4.076-6.568,4.717l-0.344,0.08c-5.507,1.274-11.096-2.154-12.459-7.644l-2.075-8.36c0-0.001,0-0.002,0-0.002
			l-65.66-264.548c0-0.001,0-0.001-0.001-0.002l-2.36-9.508C346.294,25.206,346.731,22.378,348.203,19.978z M98.655,434.574
			l-1.406,0.034l-0.936-0.006c-1.132-0.006-2.285-0.07-3.457-0.191c-2.328-0.232-4.651-0.679-6.927-1.333
			c-9.103-2.585-17.301-8.687-22.506-16.76c-3.928-6.051-12.635-41.458-15.878-57.955c-4.117-20.94-4.376-38.356-0.791-53.243
			c5.713-23.718,22.745-46.419,47.961-63.919c17.758-12.324,37.896-21.148,53.456-27.459c7.746-3.142,16.107-5.838,24.192-8.445
			c10.161-3.277,20.668-6.666,30.536-11.085c33.04-14.798,62.534-35.542,87.662-61.655c20.158-20.95,36.755-44.579,49.511-70.456
			l55.215,222.465c-57.881-41.777-130.073-60.223-201.317-50.843c-25.143,3.31-55.579,13.425-81.419,27.055
			c-26.579,14.02-44.584,35.42-49.399,58.716c-4.333,20.967,4.44,79.766,7.877,88.485c5.78,14.667,18.041,18.566,27.626,19.904
			V434.574z M465.532,497.076H87.986c-1.22,0-2.213-0.992-2.213-2.212v-7.126c0-1.22,0.993-2.212,2.213-2.212h257.707
			c4.121,0,7.462-3.34,7.462-7.462s-3.341-7.462-7.462-7.462H113.58v-88.967v-2.887c0-4.522,3.679-8.2,8.2-8.2h309.958
			c4.522,0,8.2,3.679,8.2,8.2v91.854h-59.482c-4.121,0-7.462,3.34-7.462,7.462s3.341,7.462,7.462,7.462h85.075
			c1.22,0,2.213,0.992,2.213,2.212v7.126h0.001C467.745,496.084,466.753,497.076,465.532,497.076z"/>
	</g>
</g>
<g>
	<g>
		<path d="M290.983,385c-6.013,0-11.727,1.862-16.473,5.256c-4.745-3.395-10.46-5.256-16.473-5.256
			c-15.642,0-28.367,12.725-28.367,28.367c0,31.002,40.401,47.168,42.121,47.841c0.874,0.342,1.797,0.513,2.719,0.513
			s1.845-0.171,2.719-0.513c1.72-0.673,42.121-16.839,42.121-47.841C319.35,397.725,306.625,385,290.983,385z M274.562,446.117
			c-7.794-3.687-29.968-15.688-29.968-32.75c0-7.412,6.031-13.443,13.443-13.443c4.163,0,8.025,1.884,10.596,5.17
			c1.415,1.806,3.582,2.862,5.876,2.862s4.462-1.056,5.876-2.862c2.571-3.286,6.434-5.17,10.596-5.17
			c7.412,0,13.443,6.031,13.443,13.443C304.426,429.09,284.909,441.342,274.562,446.117z"/>
	</g>
</g>
<g>
</g>
<g>
</g>
<g>
</g>
<g>
</g>
<g>
</g>
<g>
</g>
<g>
</g>
<g>
</g>
<g>
</g>
<g>
</g>
<g>
</g>
<g>
</g>
<g>
</g>
<g>
</g>
<g>
</g>
</svg>
