<svg id="Capa_1" enable-background="new 0 0 512 512" height="512" viewBox="0 0 512 512" width="512" xmlns="http://www.w3.org/2000/svg"><g><path id="XMLID_212_" d="m487.059 45.213c-15.619-10.681-35.471-12.964-53.103-6.102l-109.94 42.776c-21.848-10.272-48.187-7.976-68.01 6.924-11.411-8.604-25.238-13.258-39.781-13.257-9.95 0-19.564 2.179-28.3 6.31l-109.881-42.753c-17.632-6.861-37.484-4.581-53.103 6.102-15.617 10.682-24.941 28.354-24.941 47.275v116.089c0 18.921 9.324 36.594 24.941 47.275 9.666 6.61 20.951 10.004 32.331 10.004 7.008 0 14.052-1.287 20.771-3.902l34.856-13.562c-31.313 43.06-48.233 94.726-48.233 148.974 0 24.545 3.51 48.843 10.431 72.219.9 3.04 3.189 5.474 6.169 6.558 2.981 1.086 6.298.692 8.94-1.059l53.435-35.375 52.971 35.396c1.682 1.124 3.618 1.686 5.556 1.686 1.952 0 3.905-.571 5.595-1.712 3.366-2.272 5.024-6.355 4.194-10.331-5.887-28.201-8.871-57.219-8.871-86.248 0-46.034 7.386-91.103 21.928-134.215l23.915 23.915c1.953 1.952 4.512 2.929 7.071 2.929s5.118-.977 7.071-2.929l23.915-23.915c14.542 43.112 21.928 88.181 21.928 134.215 0 29.029-2.984 58.047-8.871 86.248-.83 3.976.828 8.059 4.194 10.331 1.69 1.142 3.643 1.712 5.595 1.712 1.937 0 3.874-.562 5.556-1.686l52.971-35.396 53.435 35.375c2.644 1.751 5.959 2.145 8.94 1.059 2.979-1.084 5.269-3.518 6.169-6.558 6.921-23.376 10.431-47.674 10.431-72.219 0-54.248-16.92-105.914-48.233-148.974l34.856 13.562c6.721 2.615 13.763 3.902 20.771 3.902 11.379 0 22.666-3.394 32.331-10.004 15.617-10.681 24.941-28.354 24.941-47.275v-116.089c0-18.921-9.324-36.593-24.941-47.275zm-416.267 198.102c-11.648 4.533-24.244 3.084-34.56-3.971s-16.232-18.269-16.232-30.767v-116.089c0-12.498 5.916-23.712 16.232-30.768 10.314-7.056 22.911-8.501 34.56-3.971l97.789 38.048c-8.932 9.247-14.64 20.466-17.123 32.243-26.429 2.226-51.262 10.052-73.297 22.313 23.799 13.241 50.86 21.313 79.672 22.737 2.993 5.593 6.834 10.848 11.546 15.56l11.739 11.739zm112.294 135.185c0 22.415 1.7 44.827 5.065 66.897l-38.929-26.013c-3.349-2.239-7.716-2.249-11.076-.023l-47.359 31.354c-4.064-17.424-6.12-35.313-6.12-53.349 0-61.88 23.886-120.119 67.272-164.163l44.628-17.364 12.752 12.752c-17.394 47.977-26.233 98.371-26.233 149.909zm72.914-131.514-72.479-72.479c-18.032-18.033-18.032-47.375 0-65.408 9.017-9.017 20.86-13.525 32.704-13.525 11.843 0 23.687 4.509 32.703 13.525 3.906 3.904 10.236 3.904 14.143 0 8.735-8.735 20.35-13.546 32.703-13.546 12.354 0 23.969 4.811 32.704 13.547 18.033 18.032 18.032 47.374 0 65.407zm171.333 150.38c0 18.036-2.056 35.925-6.12 53.349l-47.359-31.354c-3.36-2.226-7.728-2.214-11.076.023l-38.929 26.013c3.365-22.07 5.065-44.482 5.065-66.897 0-51.538-8.839-101.932-26.233-149.909l12.752-12.752 44.628 17.364c43.386 44.044 67.272 102.283 67.272 164.163zm64.667-188.789c0 12.498-5.916 23.712-16.232 30.768-10.315 7.055-22.912 8.501-34.56 3.971l-110.326-42.926 11.739-11.739c4.711-4.712 8.553-9.967 11.546-15.56 28.812-1.424 55.874-9.496 79.672-22.737-22.035-12.26-46.868-20.086-73.297-22.313-2.483-11.777-8.191-22.996-17.123-32.243l97.789-38.048c11.651-4.532 24.244-3.083 34.56 3.971 10.316 7.055 16.232 18.269 16.232 30.767z"/></g></svg>