<?xml version="1.0"?>
<svg xmlns="http://www.w3.org/2000/svg" width="512" height="512" viewBox="0 0 128 128"><g><path d="M64.844,58.224a1.75,1.75,0,0,0-3.5-.176A14.711,14.711,0,0,1,49.2,71.843a1.75,1.75,0,0,0,.619,3.445A18.2,18.2,0,0,0,64.844,58.224Z"/><path d="M63.355,52.966l.09,0a1.75,1.75,0,0,0,1.746-1.662l.25-4.986a1.75,1.75,0,1,0-3.5-.175L61.7,51.13A1.75,1.75,0,0,0,63.355,52.966Z"/><path d="M123.407,107.554a1.7,1.7,0,0,0-1.755-1.394l-14.686.348L96.225,80.024a27.091,27.091,0,0,0,5.524-40.533L89.679,25.743a1.755,1.755,0,0,0-1.973-.468L64,34.89,40.293,25.275a1.756,1.756,0,0,0-1.973.468L26.25,39.491a27.09,27.09,0,0,0,5.525,40.533L21.034,106.508,6.348,106.16a1.713,1.713,0,0,0-1.755,1.394,1.75,1.75,0,0,0,1.055,1.977l33.99,13.784a1.75,1.75,0,0,0,1.847-2.906L30.7,110.43,41.442,83.952a26.653,26.653,0,0,0,19.716-3.767A28.07,28.07,0,0,0,64,78.1a26.708,26.708,0,0,0,22.555,5.849L97.3,110.43l-10.781,9.979a1.75,1.75,0,0,0,1.847,2.906l33.989-13.784A1.75,1.75,0,0,0,123.407,107.554Zm-96.4,2.681a1.751,1.751,0,0,0,.433,1.942l4.642,4.3-16.245-6.588,6.324.149a1.752,1.752,0,0,0,1.663-1.091L34.851,81.752c.514.246,1.037.479,1.571.7s1.074.41,1.614.592Zm32.27-33A23.577,23.577,0,0,1,28.88,41.8L40.13,28.986,71,41.506l-.854,17.029a23.27,23.27,0,0,1-7.4,16.013c-.007.007-.015.011-.021.018l-.008.01A24.175,24.175,0,0,1,59.276,77.233Zm7.28-1.558a26.745,26.745,0,0,0,7.086-16.964l.916-18.271a1.752,1.752,0,0,0-1.09-1.711l-4.811-1.951L87.87,28.986,99.12,41.8A23.579,23.579,0,0,1,66.556,75.675Zm29.363,40.8,4.642-4.3a1.751,1.751,0,0,0,.433-1.942l-11.03-27.2c.54-.181,1.079-.374,1.614-.591s1.057-.449,1.571-.7l11.028,27.192a1.749,1.749,0,0,0,1.621,1.092h.042l6.323-.149Z"/><path d="M93.842,65.921a1.75,1.75,0,0,0,2.844,2.039,18.2,18.2,0,0,0-1.1-22.709,1.75,1.75,0,1,0-2.63,2.309A14.714,14.714,0,0,1,93.842,65.921Z"/><path d="M91.014,40.044l-3.292-3.752A1.75,1.75,0,0,0,85.091,38.6l3.292,3.752a1.75,1.75,0,1,0,2.631-2.309Z"/><path d="M64,28.647a1.75,1.75,0,0,0,1.75-1.75v-10.1a1.75,1.75,0,1,0-3.5,0V26.9A1.75,1.75,0,0,0,64,28.647Z"/><path d="M64,12.353a1.75,1.75,0,0,0,1.75-1.75v-4.3a1.75,1.75,0,0,0-3.5,0v4.3A1.75,1.75,0,0,0,64,12.353Z"/><path d="M80.149,16.452a1.748,1.748,0,0,0,1.109-.4,18.852,18.852,0,0,1,2.834-1.928A1.75,1.75,0,0,0,82.4,11.064a22.387,22.387,0,0,0-3.361,2.285,1.75,1.75,0,0,0,1.11,3.1Z"/><path d="M71.345,28.569a1.726,1.726,0,0,0,.517.078,1.75,1.75,0,0,0,1.672-1.233A27.213,27.213,0,0,1,77.363,20.2a1.749,1.749,0,1,0-2.815-2.078,30.531,30.531,0,0,0-4.358,8.264A1.749,1.749,0,0,0,71.345,28.569Z"/><path d="M43.908,14.128a18.852,18.852,0,0,1,2.834,1.928,1.75,1.75,0,0,0,2.219-2.707A22.387,22.387,0,0,0,45.6,11.064a1.75,1.75,0,0,0-1.692,3.064Z"/><path d="M54.467,27.417a1.749,1.749,0,0,0,1.671,1.23,1.721,1.721,0,0,0,.517-.078,1.749,1.749,0,0,0,1.155-2.188,30.565,30.565,0,0,0-4.358-8.264A1.749,1.749,0,1,0,50.637,20.2,27.563,27.563,0,0,1,54.467,27.417Z"/></g></svg>
