<svg id="Capa_1" enable-background="new 0 0 512.01 512.01" height="512" viewBox="0 0 512.01 512.01" width="512" xmlns="http://www.w3.org/2000/svg"><g><path d="m73.968 90.96c10.01-10.012 10.01-26.3 0-36.309l-22.167-22.167c-10.032-10.032-26.275-10.034-36.309 0-10.033 10.035-10.034 26.274 0 36.309l22.167 22.167c10.033 10.032 26.276 10.034 36.309 0zm-47.868-47.869c4.17-4.171 10.923-4.172 15.095 0l22.167 22.167c4.161 4.161 4.161 10.934-.001 15.096-4.17 4.171-10.923 4.172-15.095 0l-22.167-22.168c-4.171-4.171-4.172-10.923.001-15.095zm229.905 39.605c14.157 0 25.675-11.518 25.675-25.674l-.001-31.348c0-14.156-11.518-25.674-25.674-25.674-14.157.001-25.675 11.518-25.675 25.674l.001 31.348c0 14.157 11.518 25.674 25.674 25.674zm0-67.696c5.886 0 10.674 4.789 10.674 10.674l.001 31.348c0 5.886-4.789 10.674-10.675 10.674s-10.674-4.789-10.674-10.674l-.001-31.348c0-5.885 4.789-10.674 10.675-10.674zm-55.147 199.058c-1.844 2.116-4.505 3.329-7.301 3.329s-5.458-1.214-7.302-3.33c-2.723-3.123-7.461-3.448-10.582-.726-3.123 2.721-3.448 7.459-.727 10.581 4.694 5.386 11.478 8.475 18.61 8.475 7.134 0 13.917-3.089 18.609-8.476 2.722-3.123 2.395-7.86-.728-10.581-3.121-2.722-7.859-2.396-10.579.728zm55.147 2.611c-9.782 0-25.037-9.249-34.753 5.125-3.672 5.433-3.847 12.188-.478 18.531 5.672 10.68 20.159 18.139 35.23 18.139s29.559-7.459 35.23-18.139c3.369-6.344 3.194-13.098-.478-18.531-9.704-14.362-24.978-5.125-34.751-5.125zm0 26.794c-15.698 0-24.287-10.365-22.325-13.27 1.25-1.85 2.053-2.096 9.68-.351 10.638 2.436 14.614 2.445 25.291 0 7.854-1.797 8.489-1.411 9.68.351 1.936 2.863-6.53 13.27-22.326 13.27zm240.513-210.979c-10.032-10.033-26.274-10.035-36.31 0l-22.165 22.166c-10.011 10.01-10.011 26.298-.001 36.309v.001c10.032 10.033 26.274 10.035 36.31 0l22.165-22.166c10.034-10.034 10.035-26.273.001-36.31zm-10.608 25.703-22.165 22.166c-4.171 4.17-10.924 4.174-15.096 0v.001c-4.162-4.163-4.162-10.935 0-15.097l22.165-22.165c4.171-4.17 10.924-4.174 15.096 0 4.172 4.17 4.174 10.922 0 15.095zm-160.155 155.87c-1.844 2.116-4.506 3.33-7.302 3.33s-5.457-1.214-7.301-3.33c-2.723-3.123-7.461-3.448-10.582-.726-3.123 2.721-3.448 7.459-.727 10.581 4.694 5.386 11.477 8.475 18.609 8.475 7.133 0 13.916-3.089 18.61-8.475 2.722-3.122 2.396-7.86-.727-10.581-3.121-2.723-7.857-2.396-10.58.726zm157.743 86.452c7.645-19.702 11.515-38.577 11.49-56.182-.056-36.898-15.641-72.424-42.759-97.47-3.043-2.811-7.787-2.621-10.599.421-2.81 3.042-2.622 7.788.421 10.598 24.061 22.221 37.888 53.739 37.937 86.473.024 16.572-3.888 34.597-11.614 53.606-25.145 13.12-62.518 21.69-87.21 25.771-2.632-27.852-30.943-45.642-57.181-35.944-34.893 12.895-71.77 21.535-109.626 25.705-7.306-2.19-14.56-4.611-21.756-7.27-16.112-5.954-33.56-1.505-44.966 9.922-2.435-.076-4.795-.166-7.035-.272-48.599-2.299-83.674-11.84-97.46-18.39-7.476-18.561-11.287-36.199-11.311-52.459-.098-65.023 52.724-118.002 117.746-118.099h.18c40.66 0 77.93 20.555 99.715 55.006 2.949 4.663 9.771 4.627 12.689-.019 33.143-52.757 99.5-69.313 152.336-43.039 3.707 1.843 8.209.332 10.055-3.377 1.844-3.709.332-8.21-3.377-10.055-55.664-27.679-125.869-13.452-165.384 39.276-42.353-56.166-105.589-52.637-106.236-52.792-73.293.11-132.833 59.828-132.724 133.122.026 17.461 3.881 36.152 11.443 55.627-12.375 13.243-11.055 38.333-3.002 54.979 8.633 17.843 31.356 31.466 63.615 39.034 23.435 26.387 51.559 51.94 81.49 74.003 3.349 2.467 8.039 1.734 10.487-1.587 2.458-3.334 1.747-8.029-1.587-10.487-23.65-17.433-46.118-37.097-65.921-57.599 28.038 3.526 64.579 3.105 93.401.8 60.338 15.559 122.565 17.97 182.084 8.985-33.206 32.633-72.26 62.034-109.8 82.397-14.24 7.727-31.261 7.751-45.528.067-8.273-4.457-16.777-9.442-25.276-14.819-3.498-2.214-8.134-1.172-10.348 2.328-2.215 3.5-1.173 8.133 2.328 10.348 8.793 5.564 17.603 10.728 26.183 15.349 18.731 10.089 41.084 10.061 59.794-.088 44.639-24.214 91.314-60.77 128.396-100.509 40.065-9.534 64.953-25.553 75.664-48.587 9.315-20.035 5.921-43.581-6.754-54.773zm-154.316 1.344c17.33-6.405 35.862 5.686 37.119 24-38.548 4.686-76.369 3.664-113.053-3.025 26.032-4.921 51.453-11.929 75.934-20.975zm-191.901 84.161c-78.564-3.717-95.843-31.391-98.509-36.901-6.864-14.187-5.691-30.23-.319-37.282 17.905 7.955 54.404 16.608 99.669 18.927-8.37 21.55 1.604 46.839 26.102 55.817-9.032.037-18.027-.14-26.943-.561zm339.37-37.058c-10.943 23.534-43.766 39.035-97.555 46.073-72.897 9.538-143.835 1.821-210.839-22.94-14.281-5.277-21.605-21.19-16.328-35.472 5.276-14.282 21.19-21.607 35.473-16.329 58.514 21.623 120.598 28.349 184.529 19.982 45.709-5.98 82.372-18.492 101.903-28.266 6.82 6.407 9.563 22.443 2.817 36.952z"/></g></svg>