<?xml version="1.0" encoding="iso-8859-1"?>
<!-- Generator: Adobe Illustrator 19.0.0, SVG Export Plug-In . SVG Version: 6.00 Build 0)  -->
<svg version="1.1" id="Capa_1" xmlns="http://www.w3.org/2000/svg" xmlns:xlink="http://www.w3.org/1999/xlink" x="0px" y="0px"
	 viewBox="0 0 512 512" style="enable-background:new 0 0 512 512;" xml:space="preserve">
<g>
	<g>
		<path d="M65.94,340.477c-4.691-9.423-9.531-12.618-11.394-13.555c-2.15-1.08-4.682-1.08-6.832,0.001
			c-1.863,0.937-6.701,4.132-11.391,13.555c-5.025,10.092-7.792,23.236-7.792,37.009c0,13.775,2.768,26.918,7.792,37.01
			c4.691,9.425,9.531,12.62,11.394,13.556c1.074,0.54,2.244,0.81,3.414,0.81c1.17,0,2.342-0.27,3.414-0.81
			c1.864-0.936,6.703-4.131,11.394-13.553c5.025-10.092,7.793-23.236,7.793-37.011C73.733,363.714,70.966,350.57,65.94,340.477z
			 M52.323,407.72c-0.411,0.824-0.81,1.558-1.193,2.21c-0.382-0.652-0.782-1.386-1.193-2.211c-3.997-8.028-6.197-18.764-6.197-30.23
			s2.201-22.202,6.197-30.229c0.411-0.824,0.81-1.559,1.193-2.211c0.382,0.652,0.782,1.385,1.193,2.21
			c3.997,8.027,6.198,18.763,6.198,30.23S56.32,399.692,52.323,407.72z"/>
	</g>
</g>
<g>
	<g>
		<path d="M379.786,40.294c-11.926-6.098-32.608-13.368-63.409-13.368s-51.483,7.269-63.408,13.368
			c-15.279,7.814-24.402,17.74-24.402,26.553c-0.001,9.618,10.887,20.534,28.416,28.488c3.828,1.736,8.333,0.042,10.07-3.783
			c1.735-3.825,0.042-8.333-3.783-10.069c-13.862-6.291-18.623-12.748-19.411-14.635c0.747-1.774,5.118-7.782,17.721-13.849
			c10.295-4.956,28.16-10.863,54.796-10.863s44.502,5.907,54.797,10.863c12.599,6.064,16.97,12.071,17.721,13.847
			c-0.75,1.776-5.122,7.782-17.721,13.847c-10.295,4.956-28.161,10.863-54.797,10.863c-10.823,0-21.133-0.994-30.647-2.954
			c-4.111-0.848-8.136,1.8-8.984,5.914c-0.848,4.114,1.8,8.136,5.914,8.984c10.521,2.168,21.866,3.267,33.717,3.267
			c30.801,0,51.484-7.269,63.409-13.368c15.279-7.813,24.402-17.74,24.402-26.553C404.188,58.034,395.066,48.107,379.786,40.294z"/>
	</g>
</g>
<g>
	<g>
		<path d="M356.332,59.623c-11.63-3.829-25.074-5.77-39.956-5.77s-28.326,1.942-39.955,5.77c-3.119,1.027-5.227,3.94-5.227,7.224
			c0,3.284,2.107,6.197,5.227,7.224c11.629,3.829,25.072,5.77,39.955,5.77c14.885,0,28.328-1.942,39.956-5.77
			c3.119-1.027,5.227-3.94,5.227-7.224S359.451,60.651,356.332,59.623z"/>
	</g>
</g>
<g>
	<g>
		<path d="M316.377,0c-64.339,0-114.738,29.363-114.738,66.848c0,0.048,0.003,0.094,0.003,0.142v86.643
			c0,4.2,3.404,7.606,7.606,7.606c4.201,0,7.606-3.405,7.606-7.606v-53.038c19.64,19.941,56.456,33.099,99.523,33.099
			c43.067,0,79.883-13.158,99.523-33.1v71.26c0,4.2,3.404,7.606,7.606,7.606c4.201,0,7.606-3.405,7.606-7.606V66.942
			c0-0.031,0.002-0.063,0.002-0.094C431.114,29.363,380.715,0,316.377,0z M415.9,66.845v0.081
			c-0.085,27.956-45.626,51.558-99.523,51.558c-53.873,0-99.395-23.581-99.523-51.518v-0.12c0-0.013-0.002-0.025-0.002-0.039
			c0.045-27.973,45.603-51.596,99.525-51.596c53.929,0,99.494,23.631,99.524,51.608C415.901,66.827,415.9,66.836,415.9,66.845z"/>
	</g>
</g>
<g>
	<g>
		<path d="M423.506,388.803c-4.201,0-7.606,3.405-7.606,7.606v48.748c0,27.987-45.578,51.632-99.528,51.632
			c-53.944,0-99.518-23.645-99.518-51.632V178.987c0-4.2-3.404-7.606-7.606-7.606c-4.201,0-7.606,3.405-7.606,7.606v266.169
			c0,37.482,50.395,66.844,114.73,66.844c64.34,0,114.74-29.361,114.74-66.844v-48.748
			C431.112,392.208,427.706,388.803,423.506,388.803z"/>
	</g>
</g>
<g>
	<g>
		<path d="M503.374,190.446c-3.914-8.351-9.462-15.459-15.617-20.013c-7.378-5.457-15.298-6.866-21.745-3.877
			c-0.049,0.022-66.291,39.807-66.291,39.807c-3.6,2.165-4.762,6.838-2.599,10.437c1.428,2.373,3.945,3.687,6.526,3.687
			c1.335,0,2.685-0.351,3.912-1.089l47.453-28.538c0.433,6.344,2.253,13.187,5.331,19.755c3.914,8.351,9.462,15.459,15.617,20.013
			c2.447,1.81,4.953,3.171,7.445,4.078L392.607,391.83c-2.101,3.637-0.857,8.289,2.78,10.391c1.2,0.693,2.508,1.022,3.799,1.022
			c2.628,0,5.183-1.363,6.593-3.802c0,0,98.18-169.926,98.246-170.06c2.749-3.59,4.411-8.439,4.737-14.129
			C509.204,207.607,507.289,198.798,503.374,190.446z M493.579,214.383c-0.213,3.715-1.323,5.882-2.263,6.323
			c-0.943,0.441-3.316-0.092-6.307-2.305c-4.101-3.034-8.07-8.224-10.891-14.241c-2.82-6.017-4.27-12.387-3.979-17.48
			c0.184-3.209,1.037-5.256,1.873-6.041l0.552-0.332c0.173-0.055,0.372-0.092,0.615-0.092c1.191,0,3.169,0.7,5.531,2.448
			c4.101,3.033,8.07,8.224,10.891,14.24C492.42,202.918,493.871,209.29,493.579,214.383z"/>
	</g>
</g>
<g>
	<g>
		<path d="M184.773,439.093H80.111c11.595-13.895,18.974-36.113,18.974-61.604s-7.379-47.708-18.974-61.604h104.662v-0.001
			c4.201,0,7.606-3.405,7.606-7.606c0-4.2-3.404-7.606-7.606-7.606h-46.037l-2.839-13.663c10.816-16.526,12.973-37.031,5.68-55.54
			c-7.723-19.594-24.718-33.602-45.459-37.47c-2.864-0.534-5.784,0.616-7.516,2.962c-12.525,16.981-15.392,38.817-7.669,58.411
			c7.083,17.974,21.973,31.24,40.396,36.299l1.871,9.002H51.131c-26.891,0-47.955,33.741-47.955,76.815s21.064,76.815,47.955,76.815
			h133.642c4.201,0,7.606-3.405,7.606-7.606S188.974,439.093,184.773,439.093z M95.084,249.795
			c-5.183-13.15-4.003-27.649,3.041-39.681c13.358,3.992,24.114,13.786,29.299,26.935c5.182,13.15,4.001,27.65-3.041,39.681
			C111.023,272.738,100.266,262.944,95.084,249.795z M51.131,439.092c-17.749,0-32.743-28.211-32.743-61.604
			c0-33.392,14.995-61.604,32.743-61.604c17.748,0,32.742,28.211,32.742,61.604C83.873,410.881,68.879,439.092,51.131,439.092z"/>
	</g>
</g>
<g>
	<g>
		<path d="M274.008,228.679c-4.201,0-7.606,3.405-7.606,7.606v134.359c0,4.2,3.404,7.606,7.606,7.606
			c4.201,0,7.606-3.405,7.606-7.606V236.284C281.613,232.084,278.208,228.679,274.008,228.679z"/>
	</g>
</g>
<g>
	<g>
		<path d="M274.008,153.129c-4.201,0-7.606,3.405-7.606,7.606v50.196c0,4.2,3.404,7.606,7.606,7.606
			c4.201,0,7.606-3.405,7.606-7.606v-50.196C281.613,156.534,278.209,153.129,274.008,153.129z"/>
	</g>
</g>
<g>
	<g>
		<path d="M239.532,402.081c-4.201,0-7.606,3.405-7.606,7.606v17.236c0,4.2,3.404,7.606,7.606,7.606
			c4.201,0,7.606-3.405,7.606-7.606v-17.236C247.138,405.487,243.734,402.081,239.532,402.081z"/>
	</g>
</g>
<g>
	<g>
		<path d="M239.532,142.482c-4.201,0-7.606,3.405-7.606,7.606v234.246c0,4.2,3.404,7.606,7.606,7.606
			c4.201,0,7.606-3.405,7.606-7.606V150.087C247.138,145.887,243.734,142.482,239.532,142.482z"/>
	</g>
</g>
<g>
</g>
<g>
</g>
<g>
</g>
<g>
</g>
<g>
</g>
<g>
</g>
<g>
</g>
<g>
</g>
<g>
</g>
<g>
</g>
<g>
</g>
<g>
</g>
<g>
</g>
<g>
</g>
<g>
</g>
</svg>
