<svg id="Capa_1" enable-background="new 0 0 512 512" height="512" viewBox="0 0 512 512" width="512" xmlns="http://www.w3.org/2000/svg"><g><path d="m121.27 450.29c3.43 2.267 4.394 6.917 2.098 10.346-2.268 3.458-6.917 4.394-10.375 2.126-8.05-5.329-14.882-11.934-20.239-19.332-5.471-7.568-9.439-16.016-11.65-24.832-.369-1.502-1.814-5.216-.454-8.844 1.275-3.458 4.224-5.188 7.058-7.115 9.638-6.605 21.09-10.8 33.222-12.189 11.991-1.361 24.69.028 36.992 4.592 8.73 3.26 16.582 7.824 23.329 13.38-.794-1.984-1.644-3.94-2.495-5.868-11.282-25.342-28.006-46.233-46.828-66.416-13.437 12.473-31.125 20.636-51.364 22.564-14.74 1.389-31.38 0-44.901-5.499-12.671-5.159-20.835-13.465-21.458-23.698-.567-9.354 5.301-17.858 15.477-24.321 5.953-3.798 13.521-6.973 22.138-9.184-5.414-7.087-9.439-14.259-11.792-20.92-3.997-11.339-3.373-21.628 2.835-28.658 6.236-7.03 16.384-8.901 28.12-6.293 6.888 1.531 14.513 4.649 22.167 9.184 1.191-8.873 3.402-16.781 6.435-23.13 4.507-9.468 12.274-18.312 23.499-18.34 9.751 0 18.51 6.973 24.917 18.482 5.726 10.29 9.751 24.604 10.743 40.478h.028v.567.028h.028v.057c1.191 21.855-5.102 41.811-16.837 57.515 5.499 5.868 10.686 11.65 15.59 17.461 1.333-7.937 4.479-15.817 9.581-22.932 5.216-7.314 11.877-12.982 19.219-16.81 7.654-4.025 16.073-6.038 24.35-5.868 2.92.057 4.592-.085 7.115 1.701 2.92 2.098 3.43 4.649 4.252 7.03 2.608 7.597 3.345 15.874 2.069 24.094-1.247 8.164-4.45 16.299-9.694 23.641-5.613 7.852-12.898 13.805-20.892 17.631-3.968 1.899-8.107 3.288-12.33 4.11 4.139 6.86 7.852 13.946 11.197 21.43 12.671 28.46 19.304 62.022 19.304 108.057 0 4.138-3.345 7.483-7.483 7.483-4.139 0-7.512-3.345-7.512-7.483 0-13.72-.595-26.249-1.786-37.786-5.159 2.92-10.715 5.216-16.554 6.832-9.638 2.665-20.013 3.43-30.529 2.098-4.11-.51-7.002-4.252-6.491-8.334.538-4.11 4.252-7.001 8.362-6.491 8.504 1.077 16.894.454 24.69-1.701 6.321-1.758 12.246-4.507 17.49-8.164-2.183-8.476-6.435-16.526-12.444-23.471-6.803-7.909-15.902-14.372-26.759-18.397-10.063-3.713-20.41-4.875-30.132-3.77-9.865 1.134-19.105 4.564-26.844 9.978 1.758 6.831 4.875 13.408 9.156 19.332 4.334 5.983 9.862 11.34 16.382 15.649zm121.095-290.353c3.827 1.56 5.67 5.925 4.11 9.752-1.559 3.827-5.924 5.669-9.751 4.139-9.609-3.912-17.802-10.63-23.556-19.163-5.584-8.277-8.816-18.227-8.816-28.913 0-14.343 5.812-27.298 15.194-36.681 9.383-9.382 22.337-15.193 36.68-15.193 14.315 0 27.269 5.811 36.681 15.193 9.383 9.383 15.193 22.337 15.193 36.681 0 10.687-3.26 20.636-8.844 28.913-5.726 8.532-13.918 15.251-23.556 19.163-3.827 1.531-8.192-.312-9.751-4.139s.311-8.192 4.139-9.752c6.86-2.806 12.699-7.568 16.752-13.606 3.94-5.868 6.236-12.955 6.236-20.58 0-10.176-4.11-19.418-10.8-26.079-6.662-6.662-15.874-10.8-26.051-10.8-10.205 0-19.417 4.139-26.079 10.8-6.69 6.661-10.8 15.902-10.8 26.079 0 7.625 2.296 14.712 6.236 20.58 4.084 6.037 9.895 10.8 16.783 13.606zm34.385-147.487c6.605 9.042 10.517 20.58 12.558 27.921.85 3.005 5.754.596 7.483-.368 6.236-3.486 16.186-7.795 26.334-9.014 8.135-.992 16.044.227 21.827 5.698 6.18 5.782 7.115 15.193 5.953 23.102-1.559 10.744-7.115 22.139-10.8 28.659-2.721 4.79 1.304 4.309 3.004 4.762 7.059 1.928 18.567 6.095 26.986 12.501 6.718 5.103 11.622 11.65 11.849 19.843.226 8.419-5.783 15.704-12.161 20.494-8.674 6.463-20.608 10.715-27.808 12.671-5.159 1.417-2.296 3.657-1.219 5.499 3.6 6.321 8.759 17.434 10.148 27.893 1.134 8.362-.028 16.441-5.612 22.394-5.811 6.151-15.165 7.086-23.074 5.924-10.772-1.559-22.167-7.086-28.686-10.772-4.479-2.522-3.883-.227-4.734 3.09-1.956 7.03-6.18 18.539-12.558 26.901-3.486 4.564-7.653 8.306-12.529 10.289v254.58c0 4.138-3.345 7.483-7.484 7.483-4.138 0-7.512-3.345-7.512-7.483v-254.552c-5.017-2.012-9.269-5.867-12.784-10.602-6.491-8.73-10.602-20.664-12.643-27.864-1.304-4.592-5.329-1.247-7.994.198-6.179 3.316-16.639 7.795-26.504 8.844-7.965.878-15.675-.397-21.316-5.726-6.038-5.669-7.001-14.938-5.953-22.677 1.417-10.46 6.548-21.572 10.176-27.921 3.373-5.981 2.579-4.507-3.713-6.292-6.888-1.928-17.915-6.123-26.022-12.444-6.492-5.045-11.254-11.508-11.48-19.531-.227-8.447 5.726-15.732 12.161-20.522 8.646-6.463 20.608-10.658 27.836-12.643 4.848-1.332 1.361-5.046-.226-7.966-3.317-6.151-7.767-16.639-8.844-26.504-.85-7.965.397-15.675 5.726-21.317 5.811-6.151 15.251-7.03 23.131-5.896 10.743 1.559 22.195 7.001 28.63 10.715 2.126 1.19 3.969-.624 4.706-3.146 1.956-7.002 6.207-18.482 12.614-26.844 5.102-6.69 11.65-11.566 19.786-11.821 8.615-.226 15.957 5.868 20.748 12.444zm-12.076 8.844c-2.579-3.543-5.471-6.123-8.447-6.321-2.778.198-5.584 2.636-8.135 5.953-5.017 6.548-8.476 15.931-10.063 21.742-2.098 7.54-3.742 12.246-8.221 14.939-4.932 2.948-10.148 1.871-18.34-2.835-5.357-3.09-14.797-7.625-23.301-8.844-4.28-.624-8.079-.397-10.262 1.503-1.729 1.984-2.041 5.442-1.615 9.298.822 7.568 4.45 15.987 7.143 20.976.85 1.559 1.19 2.211 1.531 2.834 1.814 3.231 3.288 5.897 4.082 8.759 2.409 8.788-.454 14.032-14.627 17.915-6.038 1.644-15.931 5.074-22.819 10.233-3.43 2.551-5.953 5.414-6.151 8.306.17 2.721 2.523 5.471 5.726 7.965 6.208 4.847 15.194 8.22 20.863 9.808 8.22 2.296 13.237 4.138 15.902 8.929 2.919 5.131 1.615 10.545-3.26 19.134-2.976 5.272-7.228 14.372-8.333 22.536-.567 4.11-.312 7.824 1.559 9.95 1.984 1.701 5.443 2.013 9.298 1.587 7.568-.822 15.959-4.451 21.005-7.143.68-.369 1.644-.907 2.522-1.418 3.26-1.786 5.925-3.26 8.759-4.054 8.873-2.523 14.202.255 18.199 14.4 1.729 6.123 5.159 16.158 10.261 23.018 1.757 2.353 5.074 6.038 8.277 6.038 3.061 0 6.406-3.685 8.107-5.924 5.017-6.576 8.447-15.987 10.035-21.827 2.069-7.456 3.912-12.161 8.39-14.768 4.933-2.835 10.177-1.843 18.17 2.664 5.471 3.118 14.939 7.738 23.386 8.958 4.224.624 8.022.397 10.233-1.531 1.843-2.126 2.098-5.839 1.531-9.978-1.105-8.163-5.329-17.235-8.333-22.507-3.912-6.859-5.953-11.48-4.536-16.497 1.502-5.499 5.981-8.362 14.854-10.8 5.981-1.616 15.846-5.103 22.762-10.261 3.43-2.58 5.981-5.443 6.18-8.277-.199-2.835-2.636-5.641-5.953-8.136-6.548-4.989-16.016-8.39-21.883-10.006-7.682-2.098-12.387-3.884-14.995-8.419-2.806-4.933-1.672-10.091 2.919-18.142 3.118-5.471 7.739-14.939 8.986-23.415.624-4.224.397-7.994-1.531-10.205-2.041-1.786-5.641-2.069-9.666-1.559-7.909.936-16.611 4.819-21.685 7.682-3.316 1.871-6.973 4.167-10.63 5.159-8.476 2.381-13.748-.255-17.433-13.493-1.73-6.266-5.217-16.754-10.461-23.926zm121.975 300.303c6.86 7.342 15.336 13.21 25.03 17.121 3.855 1.531 5.698 5.896 4.167 9.723s-5.896 5.698-9.723 4.167c-9.808-3.94-18.596-9.553-26.051-16.469-18.822 20.183-35.546 41.074-46.828 66.416-.85 1.927-1.701 3.883-2.495 5.868 6.747-5.556 14.599-10.12 23.329-13.38 12.302-4.564 25.001-5.953 36.992-4.592 12.529 1.445 24.293 5.868 34.129 12.812 2.126 1.502 4.876 3.005 6.151 6.463 1.361 3.657-.085 7.455-.454 8.872-2.919 11.679-8.957 22.706-17.518 31.947-8.249 8.9-18.765 16.129-31.067 20.692-13.238 4.904-26.901 6.151-39.657 4.252-9.156-1.389-17.83-4.337-25.597-8.759-1.19 11.565-1.786 24.066-1.786 37.786 0 4.138-3.373 7.483-7.512 7.483s-7.483-3.345-7.483-7.483c0-46.035 6.633-79.597 19.304-108.057 3.345-7.483 7.059-14.57 11.197-21.43-4.224-.822-8.362-2.183-12.331-4.11-7.994-3.827-15.279-9.78-20.892-17.631-5.244-7.342-8.447-15.478-9.694-23.641-1.247-8.079-.567-16.214 1.956-23.698.851-2.551 1.729-5.386 4.365-7.427 1.758-1.332 4.195-1.644 7.115-1.701 8.277-.17 16.696 1.842 24.35 5.868 7.342 3.827 14.003 9.496 19.219 16.81 5.103 7.115 8.249 14.995 9.581 22.932 4.904-5.811 10.091-11.594 15.591-17.461-1.503-2.013-2.892-4.082-4.224-6.208-10.432-16.923-14.088-36.028-12.274-55.615 1.333-14.4 5.187-27.326 10.46-36.822 5.556-9.95 14.797-19.672 27.071-18.34 8.957.964 16.328 7.71 21.345 18.199 3.033 6.35 5.244 14.258 6.406 23.13 7.682-4.535 15.307-7.653 22.195-9.184 11.735-2.608 21.883-.737 28.119 6.293 6.208 7.03 6.832 17.319 2.835 28.658-2.353 6.661-6.378 13.833-11.792 20.92 8.617 2.211 16.186 5.386 22.139 9.184 10.176 6.463 16.044 14.967 15.477 24.321-.595 9.439-7.569 17.235-18.624 22.45-9.581 4.507-22.621 7.172-36.992 7.2-4.139 0-7.483-3.345-7.483-7.455 0-4.139 3.345-7.484 7.483-7.484 12.161-.028 22.932-2.183 30.671-5.811 6.009-2.835 9.779-6.265 9.978-9.78.227-3.487-3.004-7.314-8.532-10.828-7.058-4.507-17.319-7.965-29.225-9.524-4.11-.539-6.973-4.281-6.463-8.391.227-1.672.992-3.146 2.098-4.252v-.028c8.391-8.533 14.343-17.575 17.149-25.484 2.183-6.207 2.381-11.196.085-13.805-2.296-2.607-7.313-3.004-13.72-1.587-8.192 1.814-17.887 6.604-27.411 13.918-3.26 2.522-7.937 1.899-10.46-1.361-1.19-1.559-1.531-3.089-1.559-4.96-.142-11.764-2.324-22.195-5.924-29.707-2.721-5.726-6.01-9.355-9.354-9.751-.198 0-.425-.029-.624-.057-3.883 0-8.107 4.082-11.82 10.772-4.706 8.475-8.05 20.579-8.873 34.242-.907 15.166 2.324 30.076 10.347 43.087 2.354 3.799 5.075 7.399 8.108 10.687zm-260.447-.964c.142-.17.283-.311.454-.482 11.792-13.464 18.312-31.634 17.178-51.846-.028-.312-.057-.624-.057-.907-.851-13.493-4.167-25.427-8.844-33.817-3.713-6.69-7.937-10.772-11.82-10.772-.198.028-.425.057-.623.057-3.345.396-6.633 4.025-9.354 9.751-3.543 7.427-5.726 17.716-5.924 29.31-.057 2.041-.227 3.572-1.559 5.357-2.523 3.26-7.2 3.883-10.46 1.361-9.524-7.314-19.219-12.104-27.411-13.918-6.406-1.417-11.423-1.02-13.719 1.587-2.296 2.608-2.098 7.597.085 13.805 2.749 7.767 8.532 16.64 16.724 25.059 1.361 1.389 2.24 2.636 2.523 4.706.51 4.11-2.353 7.852-6.463 8.391-11.906 1.559-22.167 5.017-29.225 9.524-5.528 3.515-8.759 7.341-8.532 10.828.226 3.94 4.847 7.739 12.132 10.686 12.416 5.046 22.564 4.677 35.547 4.677 20.179-1.36 37.442-10.006 49.348-23.357zm198.68 36.822c4.45 2.126 9.185 3.316 13.89 3.515 1.333-4.507 1.73-9.411 1.162-14.315-.737-6.35-3.146-12.756-7.256-18.482-3.827-5.358-8.646-9.468-13.947-12.246-4.79-2.523-9.949-3.912-15.08-4.139-1.446 4.932-1.786 10.262-.964 15.647.907 5.924 3.232 11.849 7.059 17.178 4.109 5.755 9.382 10.092 15.136 12.842zm-151.653 3.515c4.706-.198 9.44-1.389 13.89-3.515 5.754-2.75 11.027-7.087 15.137-12.841 3.827-5.329 6.151-11.253 7.059-17.178.822-5.386.482-10.715-.964-15.647-5.131.227-10.29 1.616-15.08 4.139-5.301 2.75-10.12 6.888-13.975 12.246-4.081 5.726-6.491 12.132-7.228 18.482-.569 4.903-.172 9.807 1.161 14.314zm146.862 90c7.172 5.018 15.647 8.334 24.718 9.694 10.346 1.531 21.458.511 32.287-3.486 10.12-3.77 18.68-9.609 25.313-16.753 6.747-7.285 11.509-15.959 13.862-25.115-7.739-5.415-16.98-8.844-26.844-9.978-9.723-1.105-20.069.057-30.132 3.77-10.856 4.025-19.956 10.488-26.759 18.397-6.01 6.945-10.262 14.995-12.445 23.471z"/></g></svg>